<svg xmlns="http://www.w3.org/2000/svg" xmlns:xlink="http://www.w3.org/1999/xlink" viewBox="0 0 978 978"><defs><style>.cls-1{fill:none;}.cls-2{fill:#432163;}.cls-3{fill:#584759;}.cls-4{fill:url(#linear-gradient);}.cls-5{fill:url(#linear-gradient-2);}.cls-6{fill:url(#linear-gradient-3);}.cls-7{fill:url(#linear-gradient-4);}.cls-8{clip-path:url(#clip-path);}.cls-9{fill:#76ccd6;}.cls-10{fill:#736997;}.cls-11{fill:#aa72b0;}.cls-12{fill:#b56bab;}.cls-13{fill:#8cd1c3;}.cls-14{fill:#d3e173;}.cls-15{fill:#7485c1;}.cls-16{fill:#895ba4;}.cls-17{fill:#443f59;}.cls-18{fill:#aad37c;}.cls-19{fill:#ebe467;}.cls-20{fill:#66cbea;}.cls-21{fill:#83d1da;}.cls-22{fill:#765291;}.cls-23{fill:#eae659;}.cls-24{fill:#70b3e1;}.cls-25{fill:#af79b4;}.cls-26{fill:#edc460;}.cls-27{fill:#a273b2;}.cls-28{fill:#d86ba9;}.cls-29{fill:#f39960;}.cls-30{fill:#c86eab;}.cls-31{opacity:0.21;}.cls-32{fill:url(#linear-gradient-5);}.cls-33{fill:url(#linear-gradient-6);}</style><linearGradient id="linear-gradient" x1="492.53" y1="347.19" x2="492.53" y2="184.65" gradientUnits="userSpaceOnUse"><stop offset="0" stop-color="#795592"/><stop offset="1" stop-color="#673586"/></linearGradient><linearGradient id="linear-gradient-2" x1="492.53" y1="370.15" x2="492.53" y2="352.29" xlink:href="#linear-gradient"/><linearGradient id="linear-gradient-3" x1="485.53" y1="628.32" x2="485.53" y2="863.77" xlink:href="#linear-gradient"/><linearGradient id="linear-gradient-4" x1="485.53" y1="626.86" x2="485.53" y2="602.07" xlink:href="#linear-gradient"/><clipPath id="clip-path"><rect class="cls-1" x="314.52" y="379.85" width="358" height="200"/></clipPath><linearGradient id="linear-gradient-5" x1="304.52" y1="630.85" x2="666.52" y2="630.85" gradientUnits="userSpaceOnUse"><stop offset="0" stop-color="#f1f2f2" stop-opacity="0"/><stop offset="0.34" stop-color="#f1f2f2"/><stop offset="0.67" stop-color="#f1f2f2"/><stop offset="1" stop-color="#f1f2f2" stop-opacity="0"/></linearGradient><linearGradient id="linear-gradient-6" x1="309.52" y1="346.85" x2="671.52" y2="346.85" xlink:href="#linear-gradient-5"/></defs><g id="Layer_2" data-name="Layer 2"><g id="Layer_1-2" data-name="Layer 1"><circle class="cls-2" cx="489" cy="489" r="489"/><path class="cls-3" d="M402.5,345.06c-3.46,2.58-12.57,2.56-15.93,0Z"/><path class="cls-3" d="M422.5,345.11c-3,2.67-6,2.68-8.95,0Z"/><path class="cls-3" d="M408.49,345.08q-2.48,3.72-4.94,0Z"/><path class="cls-3" d="M385.52,345.06c-.2,1-.41,2-.61,3l-.81,0-.57-3Z"/><path class="cls-3" d="M412.52,345.08l-.77,1.14-1.21-1.17Z"/><path class="cls-4" d="M481.39,104.89,311.59,347.46l361.89.17L499.79,104.8A11.27,11.27,0,0,0,481.39,104.89Z"/><polygon class="cls-5" points="311.59 347.46 344.66 373.91 617.68 373.91 673.48 347.63 311.59 347.46"/><path class="cls-6" d="M496.67,873.11,666.48,630.54l-361.89-.17L478.28,873.2A11.26,11.26,0,0,0,496.67,873.11Z"/><polygon class="cls-7" points="666.48 630.54 624.52 584.85 344.52 584.85 304.59 630.37 666.48 630.54"/><g class="cls-8"><path class="cls-9" d="M309.59,581.68c-3.74-4.16-3.86-9.14-3.75-14.4.68-31.85,1.17-63.7,1.72-95.54,2.26-1.64,5.69-2.83,6.55-5,2.07-5.34,2.63-11.25,4.44-16.72,1-3.1-.58-3-2.46-3.22l.31-2.09c1.35-.89,3.73-1.65,3.87-2.7,1.42-11,2.46-22.08,3.68-33.13a33.55,33.55,0,0,1,1-4.35c-.34-2.05-1.6-4.58-.85-6.1,2.23-4.49.85-9,.62-13.36-.16-3,1.41-7.35-3.19-9.07l13,0c.81,1.54,2.32,3.07,2.34,4.62.08,7.73-.06,15.47-.47,23.19-.24,4.61-1.25,9.18-1.7,13.78-.47,4.82-.39,9.71-1.09,14.48-.64,4.32-2.21,8.5-3,12.8-.72,3.81-.83,7.72-1.46,11.55-.68,4.14-1.54,8.26-2.55,12.32-.52,2.08-2.8,5-2.13,5.85,2.8,3.62-.42,6.6-.26,9.85.25,5.14.06,10.32.06,15.48l1.81,0,.72-6.38.47,0q.29,3.71.59,7.43l1,0c.43-1.43.87-2.85,1.7-5.59.66,2.59,1,3.8,1.35,5.29.49-1.48.9-2.72,1.48-4.44,1.26,3.2,2.26,5.75,3.32,8.43l1.84-2.16,2.14,2.88c.67-1.56,1.14-2.64,2-4.6,1,3.78,1.68,6.55,2.52,9.79,1.27-2.26,2.23-4,3.41-6.07l3.51,4.56c2.92-3.81,5.75-4.13,9.6-1v-8.44c8.6,2.82,12.27,1.17,17.15-6.4,1.52-2.37,4.64-5.95,6.27-5.59,5.38,1.21,4.74-2,5.43-5.12a33.31,33.31,0,0,1,3-8.06,82.78,82.78,0,0,1,5-7.67c.25-.38.55-.71.87-1.12l2.57,3.19c.5-2.57.88-4.32,1.18-6.08.46-2.6.08-5.75,1.43-7.72,6.37-9.32,9.77-19.39,9.56-30.7a14.1,14.1,0,0,1,1.06-4.37c.94-2.93,2.28-5.77,2.87-8.76.85-4.23.78-8.66,1.83-12.83.81-3.25,3.25-6.11,4-9.36,1-4.21,1-8.64,1.49-13l5,0c.76,2.06,1.52,4.11,2.37,6.39-2.8.27-3.28,2.25-3.28,5.64s.73,7.61-3.44,10.24c-1.25.8-1.2,3.81-1.53,5.85-.23,1.41.05,2.91-.13,4.34-.59,4.76-2.34,9.67-1.64,14.21s-.88,4.56-5.57,3.79l4.08,5.63-6,3.81,3.93,1.48L416,438.48c3.57,3.63,1.47,5.61-1.77,7.18,3.22,2.45,3.22,6.34.19,8.5l1.56,1.08c-1.24,2.4-2.88,4.33-3.18,6.45a31.1,31.1,0,0,0,.22,9.77c.67,3.79-.62,5.12-5,4.24,0,4.31,0,8.08,0,11.84.08,5.55-1.44,7.27-7.16,7.5v5.69l4.29,1.16c0,.43,0,.87,0,1.3l-5.76,1c-.28,3.91-.52,7.14-.74,10.32,9.24,1.51,5.71,7.81,4.21,13.32l1.31-.18,2.66-3.49,8.7,6.73h0c-1.67,0-3.34,0-5.12.14a4.25,4.25,0,0,0,.37-.5l-2.4-1.94-.7,1a17,17,0,0,0,2.73,1.46c.24,2-.54,4.78,3.14,4.82l2.86.51-8.52,18.34c3.61,2.86,3.58,2.78,8.35,1a3.49,3.49,0,0,1,3.12.63,4.23,4.23,0,0,1,.65,3.52c-1.78,4.64-4.17,9-3.38,14.34.13.84-1.32,2.12-2.3,2.87a8,8,0,0,1-2.78.85l.21.43-8.08.67-.21,2.57c-7.16.06-14.32.16-21.48.16Q345.79,581.75,309.59,581.68Z"/><path class="cls-10" d="M329.35,604.86c4-5.92,7.88-12,12.29-17.67,1.11-1.42,4.06-2,6.17-2q53.91-.29,107.82-.3,54.4-.06,108.82-.07l33,.27L588,592.73l-.21-.34-14.23,6.34c-.16-.34-.32-.68-.47-1-.46,1.14-.92,2.29-1.36,3.4l-5.65-5.27c-.71,2.47-1.4,4.9-2.23,7.81-1.25-1.66-2-2.62-2.94-3.88-.73,1.59-1.26,2.73-2,4.37l-2.34-3.61-6.86,8.63c-3.57-1.59-7-3.12-9.74-4.31l-8.24,8.07-4.61-5.56c.51-2,1-3.93,1.45-5.62-1.78,1.21-3.43,3.22-5,3.15-1.82-.09-3.55-2-5.09-3a7.8,7.8,0,0,1-3,.89c-3.41-.05-8.45,4.62-8.43,7.94a58.45,58.45,0,0,1-.52,6c-15.05.3-30.1.57-45.15.9-13.69.3-27.37.72-41.05,1-8.46.16-16.91.15-25.37.17-8.82,0-17.65,0-26.47,0,.08-1.16-.26-2.63.32-3.42,3.25-4.41.15-6.08-3.38-7.92l-8.59,4.57c-.2-.87-.61-2.6-1-4.33l-.85.12c-.25,1.82-.5,3.64-.89,6.57-.51-2.31-.78-3.52-1-4.38l-8.37.8-2.13-3.47-1.41,1.25c-2.61-1.08-5.91-3.33-6.75-2.63C331.71,608.27,331,605,329.35,604.86Z"/><path class="cls-11" d="M675.29,441.78c0,2-.09,4-.13,6.06-1.48,2.82-4.9,7-4,8.2,2.45,3.62.83,6.75.78,10.08,0,1.2.17,2.4.27,3.6.11,1.39.73,3.79.28,4a13.65,13.65,0,0,1-5.83,1.35c-1.26,0-2.53-1.07-3.94-1.73v2.53c2.35,2.2,5.4,3.86,5.24,5.13-.56,4.68-2.19,9.22-3.41,13.82l-.6,0q-.35-3.65-.67-7.29c-1.8,12.09-4.65,15.29-10.85,12.58-1.77,3.16-3.57,6.23-5.2,9.39-.42.81-.78,2.2-.38,2.8,1.94,2.94-.5,4.28-1.69,6.37-2,3.54-5.52,8.4-4.42,11.06,2.42,5.88-.14,11.08,0,16.56-.15-3.14-.29-6.28-.44-9.42l-1,.11c-1,6-2.06,11.93-3.29,19.09l4.6-2.91c-2.31,5.76-4.3,10.7-6.21,15.48-.77-1.85-1.58-3.83-2.39-5.82l-1.35.66c.48,3.65.95,7.29,1.55,11.83l-2,3.51,5.35,2.66-16.2,0c-1.61-.52-3.2-1.39-4.83-1.47-4.06-.22-8.14-.07-13.29-.07,2.14-4,3.64-6.76,5.37-10l-.88-.6,4-17.12a13,13,0,0,1,.3-3.87c.79-2.63,2.88-5.1,2.92-7.66.08-5-1-10.09-1.29-15.16a8.81,8.81,0,0,1,1.6-5.47c2-2.55,1.58-4.91,1.25-7.81-.37-3.29-.55-7.61,1.23-9.88,2.06-2.63,3-4.88,2.79-7.93-.22-3.66.27-6.84,3.94-9,1-.56,1.43-2.9,1.23-4.29-.42-3,.62-4.4,3.51-4.71.2,0,.36-.47.59-.78l-2-1.43,3.06-1.14-2.3-3.36c1.21-2,3.36-4,3.43-6.07.11-3.51,3.35-4,4.5-6.3,1.51-2.95,2.52-6.15,4.09-9.06,2.22-4.09,4.79-8,7.16-12,1.32-2.24,2.56-4.52,3.8-6.8.38-.71.56-1.52.94-2.23,1.07-2,2.19-3.93,3.49-6.24l-.66-.44c2.64-4.93,5.28-9.85,7.25-13.51l6.5-1.33c.09-.51.17-1,.26-1.53l-3.86-2,1-2a25.92,25.92,0,0,1,4.61.73,30.39,30.39,0,0,1,4.53,2.49c0,10.53-.07,21.82.08,33.1C673.68,438.3,674.72,440,675.29,441.78Z"/><path class="cls-3" d="M343.45,363.88l-5.92-3,.39-4.14.86-.09,2,4.54c1.34-2.7,1.79-5.34,3.23-6.12,2.8-1.49,6-2.93,9.32-.08.9.78,3,.12,4.8.12l.87,2.53c2.62-5.09,9.75-10.15,11.63-7.73.34,1.19.71,2.45.74,2.56l9.18-3.15.63,1.45,3.44-5.32,1.45,2.13.87-1.46,6.35,3.81.78-5.17.84,0c.43,1.42.87,2.83,1.69,5.54.68-2.55,1-3.74,1.38-5.2l1.63,4.93c.76-2.54,1.18-4,2-6.7.66,2.58,1,3.77,1.36,5.27l1.82-5.31,1.34,7.63.95-.11,1.12-6.65.91.15v7.39l3.33-3.62c1.86.39,3.78,1.45,4.84.89,3.79-2,7.29-4.58,10.57-6.72-.69-.46-2-1.32-3.28-2.17l135.06.18c.43.88.82,2.51,1.28,2.53,4.32.2,8.64.12,13.4.12l2.35,3.8c.66-1.8,1.08-2.94,1.42-3.88l6.17,2.06v10c2.31-1.87,3.31-4.6,4.63-4.76,2.72-.33,5.62.69,8.78,1.22l2.54-2.07,3.67,5.66c.53-1.53,1-2.93,1.47-4.28L610,356l3.32-4.51c.55,1.84.88,3,1.24,4.21l3.63-1.28c.5,1.56.91,2.87,1.42,4.47l4.18-2.36,1.67,4,3.24-5c1.12,2.16,1.94,3.74,2.77,5.32-1.93.45-4.39.3-5.7,1.46-4.92,4.35-10.71,3.59-16.45,3.59l-41.76,0c-2-.66-4-1.89-6.08-1.89-37.41-.12-74.82-.08-112.23-.08Z"/><path class="cls-12" d="M635.51,581.47l-5.35-2.66,2-3.51c-.6-4.54-1.07-8.18-1.55-11.83l1.35-.66c.81,2,1.62,4,2.39,5.82,1.91-4.78,3.9-9.72,6.21-15.48l-4.6,2.91c1.23-7.16,2.26-13.13,3.29-19.09l1-.11c.15,3.14.29,6.28.44,9.42-.16-5.48,2.4-10.68,0-16.56-1.1-2.66,2.42-7.52,4.42-11.06,1.19-2.09,3.63-3.43,1.69-6.37-.4-.6,0-2,.38-2.8,1.63-3.16,3.43-6.23,5.2-9.39,6.2,2.71,9-.49,10.85-12.58q.33,3.64.67,7.29l.6,0c1.22-4.6,2.85-9.14,3.41-13.82.16-1.27-2.89-2.93-5.24-5.13v-2.53c1.41.66,2.68,1.74,3.94,1.73a13.65,13.65,0,0,0,5.83-1.35c.45-.22-.17-2.62-.28-4-.1-1.2-.29-2.4-.27-3.6.05-3.33,1.67-6.46-.78-10.08-.85-1.25,2.57-5.38,4-8.2q.18,19,.35,38.06l-.06,90.93-3.16,3-3.77,1.58-1-.26-4,.26-1-.26-4,.26h-15l-3,.09-2-.09-.78-2.85-.8.09-.48,2.76-.49.1Z"/><path class="cls-13" d="M582.52,581.54H555.19a27.58,27.58,0,0,1,1.7-3.89c.74-1.18,2.31-2,2.65-3.25,3.63-12.88,7.51-25.72,10.45-38.76a289.51,289.51,0,0,0,4.63-29.93c1-8.62,1.4-17.32,1.94-26,.06-.95-.66-1.94-1-2.92,0-.63,0-1.26,0-1.88.67-1.49,2-3,1.9-4.47-.68-11.89,2.21-24-1.93-35.68,0-.61,0-1.22,0-1.84.49-.36,1.43-.74,1.42-1.07-.38-7-.66-14.06-1.37-21.05-1.19-11.61.64-23.67-4.86-34.68l12,0c4.32,1.63,8.8,3.14,5,9.22a4.88,4.88,0,0,0-.38,2.44c0,10.53.12,21.06.15,31.58,0,3.39.53,6.83.75,10,.5,7.24-2.47,14.68-2.4,22,0,4.31,2.36,8.49-1,12.59-.35.44.54,1.79.68,2.74.58,3.82,2.69,8.43,1.29,11.32-3.17,6.51,0,13.3-3,20.1-2.89,6.63-1.49,15.1-2.18,22.74-.38,4.18-1.18,8.32-1.79,12.47h-1.36l2.74,3.64a25,25,0,0,0-5,10.94c-1.33,6.2-2.26,12.54-4.7,18.71-1.6,4-1.75,8.9-6.32,13.29h17.2Z"/><path class="cls-14" d="M538.5,581.52l-29.95.41c-2-.07-4-.2-5.95-.21q-27.56-.08-55.13-.12c.33-2.2,1.11-4.45.88-6.6-.47-4.6-1.63-9.13-2.19-13.73-.31-2.51-2.9-5.37.64-7.6a39.79,39.79,0,0,1-3.49-18.14c.17-4.75-.18-9.51,0-14.26.06-2.08,1.14-4.13,1.12-6.2,0-2.41-1.1-4.84-1-7.24.25-10.74.62-21.48,1.18-32.2.6-11.51,1.55-23,2.1-34.51.07-1.4-1.38-2.88-2.13-4.32l0-1.87c1-1.41,2.6-2.72,2.82-4.25.6-4.06.33-8.25.9-12.32,1.25-9.08,2.64-18.14,4.31-27.15.94-5.12,2.54-10.12,3.85-15.17l5.12,0,1.62,1.15c-1.72,2.54-4.33,4.72-4.57,7.13a115.91,115.91,0,0,1-1.85,12c-.94,4.45-.8,9.13-1.21,13.7a13.75,13.75,0,0,1-.8,2.81c-.47,1.58-1.31,3.14-1.38,4.74-.18,4,.29,8.07-.09,12.06-.41,4.32-1.75,8.55-2.21,12.88-.48,4.57,0,9.25.1,13.76.12,6.33-1.67,12.9-1.64,19.49,0,6.32,0,12.64,0,19,0,3.16.07,6.31.14,9.47,0,1.92,0,3.85.24,5.76.56,5.08,1.16,10.16,1.89,15.23.47,3.3,1.19,6.56,2,10.65l2.45,1-4.48,2.34,3.55,1.2-3.13,1.22,2.39,4.31c-2.17,3.86-3.51,7.25,1.26,10.71,2.3,1.66,3.66,5,4.79,7.8,1,2.42,1,5.22,1.42,7.85l1.4-.17-2.35,5.82c8.74.71,16.67,1.8,24.63,1.92,17.61.26,35.23,0,52.84,0Z"/><path class="cls-15" d="M582.52,581.54c0-.54-.11-1.08-.16-1.62l4.09-.18,5,0c2.59-2,6.28-3.54,7.51-6.19,1.87-4,2.13-8.85,2.89-13.37,1.54-9.2,3.13-18.4,4.35-27.65,1.26-9.54,2.1-19.13,3.12-28.71,0-1.64.07-3.28.11-4.92,1.36-3.48,3.36-6.87,4-10.48,2-11.71,7.44-22,12.71-32.31,4.6-9,10.1-17.66,14.31-26.87,1.28-2.79,2.68-5.27,4.17-7.9,3.17-5.59,4.93-12,7.53-17.88A92.1,92.1,0,0,1,658,392.27c2.71-4.41,5.78-8.6,8.92-13.22l-4.31-3,7.94-.28,3.14,5c-.64,1.51-.88,3.82-2,4.39a21.32,21.32,0,0,0-10.18,10.46c-4.45,9.32-10,18.09-14.82,27.25-5.46,10.47-10.58,21.11-15.83,31.68-2.56,5.15-5.11,10.31-8.14,16.43l3.84-1.25,2.3,3.36-3.06,1.14,2,1.43c-.23.31-.39.76-.59.78-2.89.31-3.93,1.71-3.51,4.71.2,1.39-.27,3.73-1.23,4.29-3.67,2.15-4.16,5.33-3.94,9,.18,3.05-.73,5.3-2.79,7.93-1.78,2.27-1.6,6.59-1.23,9.88.33,2.9.79,5.26-1.25,7.81a8.81,8.81,0,0,0-1.6,5.47c.24,5.07,1.37,10.12,1.29,15.16,0,2.56-2.13,5-2.92,7.66a13,13,0,0,0-.3,3.87l-4,17.12.88.6c-1.73,3.22-3.23,6-5.37,10,5.15,0,9.23-.15,13.29.07,1.63.08,3.22,1,4.83,1.47Z"/><path class="cls-16" d="M670.58,626.79l-62.06,0q-2-4-4-8c.19-1,.39-2.11.61-3.31,4.87,2.94,8.61,2.56,10.55-1.21l2.76,4,4.22-2.93,2.66,2.83,10.32-4.84c-2.68-2-4.91-3.57-6.94-5.34-.78-.68-.89-2.19-1.71-2.77-2.74-2-5.61-3.78-8.52-5.5-1.89-1.12-3.94-2-5.92-3-2.6.18,1.41-5.07-4.81-3.29l1.85-8.4,11.9,0c5,4.5,9.94,9.09,15.07,13.46,4.18,3.56,8.68,6.76,12.9,10.28C656.55,614.75,663.54,620.8,670.58,626.79Z"/><path class="cls-17" d="M559.61,340.29q41.71-.15,83.42-.29c9.81-.05,19.63-.24,29.45-.37-1,1.26-1.69,3.12-3,3.7-10.48,4.72-21.09,9.16-31.61,13.8a67.41,67.41,0,0,0-6.43,3.68c-.83-1.58-1.65-3.16-2.77-5.32l-3.24,5-1.67-4-4.18,2.36c-.51-1.6-.92-2.91-1.42-4.47l-3.63,1.28c-.36-1.25-.69-2.37-1.24-4.21L610,356l-4.67-5.26c-.46,1.35-.94,2.75-1.47,4.28l-3.67-5.66-2.54,2.07c-3.16-.53-6.06-1.55-8.78-1.22-1.32.16-2.32,2.89-4.63,4.76v-10l-6.17-2.06c-.34.94-.76,2.08-1.42,3.88l-2.35-3.8c-4.76,0-9.08.08-13.4-.12C560.43,342.8,560,341.17,559.61,340.29Z"/><path class="cls-17" d="M310.59,339.46l65,.41c2.67,0,5.33.08,8,.13l.57,3,.81,0c.2-1,.41-2,.61-3l1.05,0c3.36,2.6,12.47,2.62,15.93,0h1.05q2.46,3.74,4.94,0l2.05,0,1.21,1.17.77-1.14,1,0c3,2.68,6,2.67,8.95,0h2.05c1.3.85,2.59,1.71,3.28,2.17-3.28,2.14-6.78,4.7-10.57,6.72-1.06.56-3-.5-4.84-.89l-3.33,3.62v-7.39l-.91-.15-1.12,6.65-.95.11-1.34-7.63L403,348.63c-.39-1.5-.7-2.69-1.36-5.27-.81,2.74-1.23,4.16-2,6.7L398,345.13c-.39,1.46-.7,2.65-1.38,5.2-.82-2.71-1.26-4.12-1.69-5.54l-.84,0-.78,5.17-6.35-3.81-.87,1.46-1.45-2.13-3.44,5.32-.63-1.45-9.18,3.15c0-.11-.4-1.37-.74-2.56-1.88-2.42-9,2.64-11.63,7.73l-.87-2.53c-1.76,0-3.9.66-4.8-.12-3.29-2.85-6.52-1.41-9.32.08-1.44.78-1.89,3.42-3.23,6.12l-2-4.54-.86.09-.39,4.14C329.33,355,321.09,349.06,313,343,311.89,342.23,311.37,340.67,310.59,339.46Z"/><path class="cls-17" d="M670.55,375.81l-7.94.28-9,0-20-.05-14.12,0H582.61l-12,0-6,0-16,0H532.49l-47.95,0-23,0-5.12,0H430.55l-5,0-5,0h-5.1l-6.81,0-64.07-.07-1.13.07-8.77,0-13,0h-4.19l-2.91.06-4.76.15c2.06-.79,4.11-2.26,6.18-2.27q63.66-.19,127.33-.09,110.35,0,220.71.12C666.13,374,668.34,375.16,670.55,375.81Z"/><path class="cls-10" d="M626.55,469.79,622.71,471c3-6.12,5.58-11.28,8.14-16.43,5.25-10.57,10.37-21.21,15.83-31.68,4.78-9.16,10.37-17.93,14.82-27.25a21.32,21.32,0,0,1,10.18-10.46c1.13-.57,1.37-2.88,2-4.39.59,1.05,1.68,2.1,1.68,3.16,0,19.26,0,38.53-.08,57.8-.57-1.75-1.61-3.49-1.63-5.25-.15-11.28-.08-22.57-.08-33.1a30.39,30.39,0,0,0-4.53-2.49,25.92,25.92,0,0,0-4.61-.73l-1,2,3.86,2c-.09.51-.17,1-.26,1.53l-6.5,1.33c-2,3.66-4.61,8.58-7.25,13.51l.66.44c-1.3,2.31-2.42,4.26-3.49,6.24-.38.71-.56,1.52-.94,2.23-1.24,2.28-2.48,4.56-3.8,6.8-2.37,4-4.94,7.91-7.16,12-1.57,2.91-2.58,6.11-4.09,9.06-1.15,2.26-4.39,2.79-4.5,6.3C629.91,465.78,627.76,467.77,626.55,469.79Z"/><path class="cls-14" d="M309.7,376.19l4.76-.15c.66,1.27,1.79,2.5,1.9,3.82,2,23.82,2.29,47.5-6,69.83-.82-1.5-1.77-3.22-2.72-4.94q0-10-.08-20c1-1.39,2.57-2.69,2.78-4.18a102.87,102.87,0,0,0,.89-13.25c0-3.74-1.05-7.57-.5-11.19.6-3.94.1-7.53-3.15-10.31C308.29,382.64,309,379.42,309.7,376.19Z"/><path class="cls-17" d="M343.45,363.88H449.24c37.41,0,74.82,0,112.23.08,2,0,4,1.23,6.08,1.89q-109.24,0-218.49-.08C347.19,365.76,345.32,364.54,343.45,363.88Z"/><path class="cls-18" d="M538.5,581.52l0-1.75,2-.08c4.56-1.37,10.13-1.59,13.41-4.44,3.09-2.68,4.17-8,5.42-12.4,3.17-11.18,6.64-22.35,8.68-33.75,2.26-12.61,2.93-25.49,4.55-38.22.61-4.74,1.93-9.39,2.93-14.09.36,1,1.08,2,1,2.92-.54,8.67-.92,17.37-1.94,26A289.51,289.51,0,0,1,570,535.63c-2.94,13-6.82,25.88-10.45,38.76-.34,1.23-1.91,2.07-2.65,3.25a27.58,27.58,0,0,0-1.7,3.89Z"/><path class="cls-18" d="M307.64,444.75c.95,1.72,1.9,3.44,2.72,4.94,8.29-22.33,8-46,6-69.83-.11-1.32-1.24-2.55-1.9-3.82l2.91-.06c1.25,7.13,3.05,14.22,3.57,21.41.38,5.22-.95,10.56-1.47,15.85q-1.56,15.72-3.07,31.45l-.3,2.09c-.6,1.39-1.29,2.75-1.78,4.18-1.1,3.18-2.11,6.39-2.8,8.53l-3.91-2Z"/><path class="cls-17" d="M447.47,581.6q27.57.06,55.13.12c2,0,4,.14,5.95.21a38.48,38.48,0,0,1-5.8.86q-93.76.11-187.53.05c-1.88,0-3.75-.76-5.63-1.16q36.21,0,72.41.08c7.16,0,14.32-.1,21.48-.16l30.92-.11Z"/><path class="cls-17" d="M675.45,576.83l.06-90.93c.67,1.52,1.9,3,1.91,4.55q.18,40.95,0,81.9C677.43,573.84,676.14,575.33,675.45,576.83Z"/><path class="cls-19" d="M307.58,385.86c3.25,2.78,3.75,6.37,3.15,10.31-.55,3.62.53,7.45.5,11.19a102.87,102.87,0,0,1-.89,13.25c-.21,1.49-1.81,2.79-2.78,4.18Q307.58,405.32,307.58,385.86Z"/><path class="cls-13" d="M307.61,457.5l3.91,2c.69-2.14,1.7-5.35,2.8-8.53.49-1.43,1.18-2.79,1.78-4.18,1.87.25,3.47.12,2.45,3.22-1.81,5.47-2.37,11.38-4.44,16.72-.86,2.19-4.29,3.38-6.55,5Q307.59,464.62,307.61,457.5Z"/><path class="cls-17" d="M621.48,585.09l-11.9,0-12.1,0-33-.27c1.53-.66,3.06-1.87,4.59-1.89q24.06-.21,48.11,0C618.6,583,620,584.35,621.48,585.09Z"/><path class="cls-11" d="M648.53,581.38h0Z"/><path class="cls-11" d="M658.52,581.38l4-.26Z"/><path class="cls-11" d="M663.52,581.38l4-.26Z"/><path class="cls-11" d="M668.52,581.38l3.77-1.58Z"/><path class="cls-11" d="M636.49,581.38l.48-2.76.8-.09.78,2.85Z"/><path class="cls-11" d="M640.53,581.47l3-.09Z"/><path class="cls-13" d="M434.4,581.49l-30.92.11c.07-.82.13-1.64.21-2.57l8.08-.67-.21-.43a8,8,0,0,0,2.78-.85c1-.75,2.43-2,2.3-2.87-.79-5.31,1.6-9.7,3.38-14.34a4.23,4.23,0,0,0-.65-3.52,3.49,3.49,0,0,0-3.12-.63c-4.77,1.74-4.74,1.82-8.35-1l8.52-18.34-2.86-.51,1.95-2,.85-.31-.83-.74v-1.94h0c1.19-2.34,1.82-5.4,3.69-6.9,4.08-3.26,4.14-7.3,4.15-11.82,0-2.28,1.43-4.52,1.89-6.83s.52-4.79.8-7.18c.39-3.34.66-6.7,1.27-10,.89-4.76,3.6-9.83,2.61-14.09-.85-3.61,0-6.46.27-9.61.2-2.69,2.1-5.67,1.37-7.92-1.15-3.51-.25-5.73,1.48-8.56a10.18,10.18,0,0,0,1.3-6.9c-1.37-6,1.89-11.47,1.18-17.53-.53-4.49,1.66-9.33,2.77-14,1.42-5.89-.49-12.06,2.09-18,1.64-3.76,1.88-8.13,2.89-12.9L439.59,376h11.79c-.61,3.43-1.31,6.84-1.81,10.29-.94,6.47-1.94,13-2.58,19.46-1,9.7-1.64,19.42-2.44,29.13,0,.63,0,1.25,0,1.87-.65.85-1.77,1.64-1.87,2.54-.82,7.25-1.78,14.5-2.08,21.77-.57,14.08-.61,28.18-1.18,42.26-.15,3.81-1.47,7.57-2.16,11.38a12.52,12.52,0,0,0,0,3.35c.48,4.71,1.68,9.45,1.39,14.1-.66,10.83-1.86,21.63-3.19,32.39-.6,4.87-2,9.64-3.22,15Z"/><path class="cls-20" d="M420.47,376l5,0c-.45,4.33-.5,8.76-1.49,13-.77,3.25-3.21,6.11-4,9.36-1.05,4.17-1,8.6-1.83,12.83-.59,3-1.93,5.83-2.87,8.76a14.1,14.1,0,0,0-1.06,4.37c.21,11.31-3.19,21.38-9.56,30.7-1.35,2-1,5.12-1.43,7.72-.3,1.76-.68,3.51-1.18,6.08l-2.57-3.19c-.32.41-.62.74-.87,1.12a82.78,82.78,0,0,0-5,7.67,33.31,33.31,0,0,0-3,8.06c-.69,3.08-.05,6.33-5.43,5.12-1.63-.36-4.75,3.22-6.27,5.59-4.88,7.57-8.55,9.22-17.15,6.4V508c-3.85-3.13-6.68-2.81-9.6,1l-3.51-4.56c-1.18,2.09-2.14,3.81-3.41,6.07-.84-3.24-1.55-6-2.52-9.79-.85,2-1.32,3-2,4.6l-2.14-2.88-1.84,2.16c-1.06-2.68-2.06-5.23-3.32-8.43-.58,1.72-1,3-1.48,4.44-.39-1.49-.69-2.7-1.35-5.29-.83,2.74-1.27,4.16-1.7,5.59l-1,0q-.3-3.72-.59-7.43l-.47,0-.72,6.38-1.81,0c0-5.16.19-10.34-.06-15.48-.16-3.25,3.06-6.23.26-9.85-.67-.86,1.61-3.77,2.13-5.85,1-4.06,1.87-8.18,2.55-12.32.63-3.83.74-7.74,1.46-11.55.82-4.3,2.39-8.48,3-12.8.7-4.77.62-9.66,1.09-14.48.45-4.6,1.46-9.17,1.7-13.78.41-7.72.55-15.46.47-23.19,0-1.55-1.53-3.08-2.34-4.62l8.77,0c-.63,7-1.48,13.92-1.84,20.89s0,14.1-.38,21.14c-.31,6.34-1,12.67-1.72,19-.37,3.29-1.18,6.54-1.79,9.8-3.44,7-1.07,14.25-.89,21.49l2-.56c1.19,3.7,2.26,7.06,3.49,10.91.87-1.16,1.33-1.77,1.77-2.37l5.25,5.61c.28-1.35.58-2.82,1.16-5.6,1.38,4.94,3.5,5,6.47,3.65,1.38-.63,3.67-1.05,4.69-.34,6.43,4.49,10.34-3.46,16-3,2.08.16,4.34-1.93,6.5-3,.24-.12.35-.5.54-.8L382.46,471l8.07-4.92c-.07-.79-.5-1.8-.16-2.32,2.49-3.78,5.1-7.49,7.73-11.18,1.12-1.58,2.88-2.88,3.51-4.61,2.56-7,4.21-14.45,7.29-21.22,3.68-8.1,4.2-17,7.66-25.2,2.89-6.82,3.27-14.7,4.81-22.37l-3.7-.39c0-.64-.06-1.29-.1-1.93Z"/><path class="cls-21" d="M439.59,376l3.71,2.64c-1,4.77-1.25,9.14-2.89,12.9-2.58,5.9-.67,12.07-2.09,18-1.11,4.66-3.3,9.5-2.77,14,.71,6.06-2.55,11.53-1.18,17.53a10.18,10.18,0,0,1-1.3,6.9c-1.73,2.83-2.63,5.05-1.48,8.56.73,2.25-1.17,5.23-1.37,7.92-.23,3.15-1.12,6-.27,9.61,1,4.26-1.72,9.33-2.61,14.09-.61,3.29-.88,6.65-1.27,10-.28,2.39-.33,4.82-.8,7.18s-1.88,4.55-1.89,6.83c0,4.52-.07,8.56-4.15,11.82-1.87,1.5-2.5,4.56-3.69,6.9l-8.69-6.73-2.66,3.49-1.31.18c1.5-5.51,5-11.81-4.21-13.32.22-3.18.46-6.41.74-10.32l5.76-1c0-.43,0-.87,0-1.3l-4.29-1.16V495c5.72-.23,7.24-2,7.16-7.5-.06-3.76,0-7.53,0-11.84,4.36.88,5.65-.45,5-4.24a31.1,31.1,0,0,1-.22-9.77c.3-2.12,1.94-4.05,3.18-6.45l-1.56-1.08c3-2.16,3-6.05-.19-8.5,3.24-1.57,5.34-3.55,1.77-7.18l3.35-1.06-3.93-1.48,6-3.81-4.08-5.63c4.69.77,6.26.7,5.57-3.79s1.05-9.45,1.64-14.21c.18-1.43-.1-2.93.13-4.34.33-2,.28-5.05,1.53-5.85,4.17-2.63,3.44-6.8,3.44-10.24s.48-5.37,3.28-5.64c-.85-2.28-1.61-4.33-2.37-6.39Z"/><path class="cls-13" d="M316.4,444.69q1.53-15.74,3.07-31.45c.52-5.29,1.85-10.63,1.47-15.85-.52-7.19-2.32-14.28-3.57-21.41h4.19c4.6,1.72,3,6.07,3.19,9.07.23,4.36,1.61,8.87-.62,13.36-.75,1.52.51,4,.85,6.1a33.55,33.55,0,0,0-1,4.35c-1.22,11.05-2.26,22.12-3.68,33.13C320.13,443,317.75,443.8,316.4,444.69Z"/><path class="cls-21" d="M415.54,530.87c0,.65,0,1.29,0,1.94,0,.35,0,.7,0,1.05l-1.95,2c-3.68,0-2.9-2.79-3-5Z"/><path class="cls-21" d="M410.32,531.18l-2.63-1.63.7-1,2.4,1.94Z"/><path class="cls-22" d="M597.48,585.11l12.1,0-1.85,8.4c6.22-1.78,2.21,3.47,4.81,3.29,2,1,4,1.83,5.92,3,2.91,1.72,5.78,3.52,8.52,5.5.82.58.93,2.09,1.71,2.77,2,1.77,4.26,3.31,6.94,5.34l-10.32,4.84-2.66-2.83-4.22,2.93-2.76-4c-1.94,3.77-5.68,4.15-10.55,1.21-.22,1.2-.42,2.26-.61,3.31-2.85-.64-5.67-1.66-8.55-1.85-6.68-.46-13.4-.63-20.1-.66-1.43,0-2.87,1.07-4.64,1.79-.51-1.91-1-3.94-1.57-6l-1.07.23c.16,1.19.33,2.38.4,2.93-2.49.31-4.72.73-7,.82s-4.68-.2-7-.21c-4.25,0-8.5.07-12.75,0a4,4,0,0,1-2.19-.6c-3.37-2.36-5.52-1.21-6.67,1.47H506.54a58.45,58.45,0,0,0,.52-6c0-3.32,5-8,8.43-7.94a7.8,7.8,0,0,0,3-.89c1.54,1,3.27,2.86,5.09,3,1.55.07,3.2-1.94,5-3.15-.44,1.69-.94,3.63-1.45,5.62l4.61,5.56,8.24-8.07c2.7,1.19,6.17,2.72,9.74,4.31l6.86-8.63,2.34,3.61c.76-1.64,1.29-2.78,2-4.37,1,1.26,1.69,2.22,2.94,3.88.83-2.91,1.52-5.34,2.23-7.81l5.65,5.27c.44-1.11.9-2.26,1.36-3.4.15.35.31.69.47,1l14.23-6.34.21.34Z"/><path class="cls-21" d="M582.61,376.1h36.86c-.66,1.54-2.28,3.5-1.82,4.53,2.53,5.69,0,8-5.36,8.72,3.55,6.58.09,12-1,18.39l1.19.89c-2.93,12.86-5.73,25.18-8.6,37.77l2.21,1.68a49.83,49.83,0,0,0-1.83,5.51,30.65,30.65,0,0,0-.24,4.71l4.42-.45c-1.11,6.09,1.29,12.87-3.6,18.24a1.45,1.45,0,0,0,0,1.41c2.72,3.13-.39,5.41-1.1,8a29.73,29.73,0,0,0-1.16,5.2c-.34,4.49-.29,9-.72,13.5-.69,7.25-1.59,14.48-2.5,21.7-.59,4.62-1.27,9.23-2.09,13.82-.36,2-1.91,4-1.62,5.75,1.12,7.09-1.95,13.66-2.35,20.59-.28,4.67-4.43,9.1-6.85,13.64l-4.09.18h-17.2c4.57-4.39,4.72-9.25,6.32-13.29,2.44-6.17,3.37-12.51,4.7-18.71a25,25,0,0,1,5-10.94l-2.74-3.64h1.36c.61-4.15,1.41-8.29,1.79-12.47.69-7.64-.71-16.11,2.18-22.74,3-6.8-.19-13.59,3-20.1,1.4-2.89-.71-7.5-1.29-11.32-.14-1-1-2.3-.68-2.74,3.33-4.1,1-8.28,1-12.59-.07-7.34,2.9-14.78,2.4-22-.22-3.2-.73-6.64-.75-10,0-10.52-.11-21-.15-31.58a4.88,4.88,0,0,1,.38-2.44C591.41,379.24,586.93,377.73,582.61,376.1Z"/><path class="cls-14" d="M575.54,476.79c-1,4.7-2.32,9.35-2.93,14.09-1.62,12.73-2.29,25.61-4.55,38.22-2,11.4-5.51,22.57-8.68,33.75-1.25,4.37-2.33,9.72-5.42,12.4-3.28,2.85-8.85,3.07-13.42,4.44a31.5,31.5,0,0,0,2.87-2.24,26.56,26.56,0,0,0,2.12-2.59c.9-1.48,1.73-3,2.71-4.42a27.34,27.34,0,0,1,2.26-2.57c.35.44.69.88,1,1.31l.32-.32-1.31-1c1-1.1,2.56-2,3-3.32,2-6.5,3.73-13.1,5.58-19.65.12-.42.76-1,.69-1.12-3.15-3.33.9-5.21,1.62-7.7.44-1.53,2.5-3,2.27-4.24-1.35-6.95,2.09-13.18,2.52-19.84.24-3.72.93-7.41,1.31-11.13.65-6.25,1.4-12.51,1.75-18.78.22-4-.31-8.13-.25-12.19,0-2.9,1.09-5.88.68-8.68-1.22-8.54-1-17-.34-25.59.22-2.94-1.54-6-2.48-9.33,0,0,.68-.49.42-.31-.85-1.94-2.14-3.55-2.14-5.17,0-2.7,1.44-5.48,1.13-8.09q-1.54-13.24-3.95-26.38c-1.41-7.67-3.08-8.81-11.34-9.53a11.31,11.31,0,0,1-2.35-.71l16,0c1.63,5.21,3.89,10.32,4.74,15.65,1.27,7.86,1.53,15.88,2.22,23.83.44,5.2.78,10.41,1.41,15.59.08.67,1.58,1.17,2.43,1.75,0,.62,0,1.23,0,1.84-.76,1.21-2.21,2.42-2.18,3.6.26,10.76.75,21.52,1.26,32.27a25.07,25.07,0,0,0,.95,4.28C575.53,475.53,575.54,476.16,575.54,476.79Z"/><path class="cls-18" d="M575.45,432.92c-.85-.58-2.35-1.08-2.43-1.75-.63-5.18-1-10.39-1.41-15.59-.69-7.95-1-16-2.22-23.83-.85-5.33-3.11-10.44-4.74-15.65l6,0c5.5,11,3.67,23.07,4.86,34.68.71,7,1,14,1.37,21.05C576.88,432.18,575.94,432.56,575.45,432.92Z"/><path class="cls-18" d="M575.53,474.91a25.07,25.07,0,0,1-.95-4.28c-.51-10.75-1-21.51-1.26-32.27,0-1.18,1.42-2.39,2.18-3.6,4.14,11.7,1.25,23.79,1.93,35.68C577.51,471.89,576.2,473.42,575.53,474.91Z"/><path class="cls-19" d="M461.55,376l23,0c.16,2.27,1,4.76.34,6.75-1.32,4-3.85,7.56-5.2,11.54-2.34,6.95-5.07,14-6,21.16-1.94,14.46-3.43,29-3.92,43.61-.37,10.89,1.22,21.83,1.74,32.76a106.83,106.83,0,0,0,5.61,30.57c2.62,7.44,5,15,7.44,22.45l-1,1.36c-2.9-5-6.28-9.36-11.77-11.78-.77-.34-1.11-1.92-1.42-3-.52-1.81-.87-3.67-1.29-5.51l-2.14-.17c-1.14,4-3.89,8.31-3,11.75,1.29,5.12-.81,8.11-3.09,11.88l-6.23-3.56-2.39-4.31,3.13-1.22-3.55-1.2,4.48-2.34-2.45-1c-.77-4.09-1.49-7.35-2-10.65-.73-5.07-1.33-10.15-1.89-15.23-.21-1.91-.2-3.84-.24-5.76-.07-3.16-.13-6.31-.14-9.47,0-6.32,0-12.64,0-19,0-6.59,1.76-13.16,1.64-19.49-.08-4.51-.58-9.19-.1-13.76.46-4.33,1.8-8.56,2.21-12.88.38-4-.09-8.05.09-12.06.07-1.6.91-3.16,1.38-4.74a13.75,13.75,0,0,0,.8-2.81c.41-4.57.27-9.25,1.21-13.7a115.91,115.91,0,0,0,1.85-12c.24-2.41,2.85-4.59,4.57-7.13Z"/><path class="cls-23" d="M454.54,545.84l6.23,3.56c2.28-3.77,4.38-6.76,3.09-11.88-.86-3.44,1.89-7.8,3-11.75l2.14.17c.42,1.84.77,3.7,1.29,5.51.31,1.08.65,2.66,1.42,3,5.49,2.42,8.87,6.83,11.77,11.78.33-.46.67-.91,1-1.36,4.66.47,4.78,5,7,7.7a12,12,0,0,0,3.5,3c2.28,1.2,4.76,2.06,7.15,3.07,2.53,1.29,5.53,1.34,8.46,1.78,3.56.55,6.47.3,9.5-2.34,2.15-1.86,5.61-2.22,8.48-3.25l2-2h0c2.63.82,5.33,6.51,7.74-.74.28,2.7.5,4.77.72,6.85l1.17-.14q.45-3.62.88-7.21l1.45.07c.15,1.18.35,2.36.43,3.54.46,6.33.88,12.65,1.39,19,0,.26.81.46,1.24.69a26.56,26.56,0,0,1-2.12,2.59,31.5,31.5,0,0,1-2.87,2.24l-2,.08c-17.61,0-35.23.26-52.84,0-8-.12-15.89-1.21-24.63-1.92l2.35-5.82-1.4.17c-.44-2.63-.46-5.43-1.42-7.85-1.13-2.83-2.49-6.14-4.79-7.8C451,553.09,452.37,549.7,454.54,545.84Z"/><path class="cls-18" d="M434.4,581.49l-2.22-1.88c1.18-5.38,2.62-10.15,3.22-15,1.33-10.76,2.53-21.56,3.19-32.39.29-4.65-.91-9.39-1.39-14.1a12.52,12.52,0,0,1,0-3.35c.69-3.81,2-7.57,2.16-11.38.57-14.08.61-28.18,1.18-42.26.3-7.27,1.26-14.52,2.08-21.77.1-.9,1.22-1.69,1.87-2.54.75,1.44,2.2,2.92,2.13,4.32-.55,11.51-1.5,23-2.1,34.51-.56,10.72-.93,21.46-1.18,32.2-.06,2.4,1,4.83,1,7.24,0,2.07-1.06,4.12-1.12,6.2-.15,4.75.2,9.51,0,14.26a39.79,39.79,0,0,0,3.49,18.14c-3.54,2.23-.95,5.09-.64,7.6.56,4.6,1.72,9.13,2.19,13.73.23,2.15-.55,4.4-.88,6.6Z"/><path class="cls-18" d="M444.55,434.93c.8-9.71,1.47-19.43,2.44-29.13.64-6.51,1.64-13,2.58-19.46.5-3.45,1.2-6.86,1.81-10.29h5.05c-1.31,5-2.91,10-3.85,15.17-1.67,9-3.06,18.07-4.31,27.15-.57,4.07-.3,8.26-.9,12.32C447.15,432.21,445.53,433.52,444.55,434.93Z"/><path class="cls-20" d="M586.45,579.74c2.42-4.54,6.57-9,6.85-13.64.4-6.93,3.47-13.5,2.35-20.59-.29-1.78,1.26-3.78,1.62-5.75.82-4.59,1.5-9.2,2.09-13.82.91-7.22,1.81-14.45,2.5-21.7.43-4.48.38-9,.72-13.5a29.73,29.73,0,0,1,1.16-5.2c.71-2.63,3.82-4.91,1.1-8a1.45,1.45,0,0,1,0-1.41c4.89-5.37,2.49-12.15,3.6-18.24.68-1.67,1.27-3.37,2-5,3.84-8.15,7.81-16.25,11.52-24.46.69-1.53-.13-4.69.69-5.07,4-1.84.61-8.46,6.17-9,.34,0,.52-1.79.76-2.75,1.4-5.7,2.79-11.41,4.32-17.66-3.26-1.95-3.84-4.66.91-7.17l-3.25-4.51,1.21-.07.75-6.09,20,.05c.66,1.38,2,2.83,1.86,4.13a58.85,58.85,0,0,1-2.13,8.86c-.11.39-.56.68-1.09,1.29-.48-1.24-.84-2.16-1.3-3.36-.76,2.22-1.69,4-1.94,5.89-.55,4.14-1.41,8.06-4.47,11.16-.69.7-2.13,1.64-2,2,2.15,6.41-7.89,9.07-4.8,15.7.05.12-.61.62-1,.87-1.51,1-3.31,4.54-3.68,6.42-.2,1-1.2,1.85-1.72,2.84-.75,1.41-1.35,2.91-2.09,4.33-.59,1.11-1.35,2.14-1.94,3.25-1.07,2-2.14,4-3.09,6.05-.46,1-.4,2.91-1,3.1-3.39,1.07-2.85,4.17-3.81,6.5-1.69,4.09-3.57,8.1-5.15,12.23a115.37,115.37,0,0,0-3.82,11.44c-1.18,4.38-2.63,8.86-2.64,13.3,0,1.87-2.8,5.54,1.63,6.67,0,1.64-.07,3.28-.11,4.92-1.36,1.26-3.81,2.43-3.91,3.78a113.29,113.29,0,0,1-2,14.93c-1.84,8.93-1.37,18.35-3.33,27.24-2.24,10.12-2,21.09-8.65,30Z"/><path class="cls-24" d="M609.48,498.85c-4.43-1.13-1.63-4.8-1.63-6.67,0-4.44,1.46-8.92,2.64-13.3a115.37,115.37,0,0,1,3.82-11.44c1.58-4.13,3.46-8.14,5.15-12.23,1-2.33.42-5.43,3.81-6.5.59-.19.53-2.09,1-3.1,1-2.05,2-4.05,3.09-6.05.59-1.11,1.35-2.14,1.94-3.25.74-1.42,1.34-2.92,2.09-4.33.52-1,1.52-1.83,1.72-2.84.37-1.88,2.17-5.41,3.68-6.42.38-.25,1-.75,1-.87-3.09-6.63,7-9.29,4.8-15.7-.14-.41,1.3-1.35,2-2,3.06-3.1,3.92-7,4.47-11.16.25-1.88,1.18-3.67,1.94-5.89.46,1.2.82,2.12,1.3,3.36.53-.61,1-.9,1.09-1.29a58.85,58.85,0,0,0,2.13-8.86c.14-1.3-1.2-2.75-1.86-4.13l9,0,4.31,3c-3.14,4.62-6.21,8.81-8.92,13.22a92.1,92.1,0,0,0-5.82,11.14c-2.6,5.93-4.36,12.29-7.53,17.88-1.49,2.63-2.89,5.11-4.17,7.9-4.21,9.21-9.71,17.83-14.31,26.87-5.27,10.34-10.74,20.6-12.71,32.31C612.84,492,610.84,495.37,609.48,498.85Z"/><path class="cls-24" d="M591.5,579.69c6.65-8.88,6.41-19.85,8.65-30,2-8.89,1.49-18.31,3.33-27.24a113.29,113.29,0,0,0,2-14.93c.1-1.35,2.55-2.52,3.91-3.78-1,9.58-1.86,19.17-3.12,28.71-1.22,9.25-2.81,18.45-4.35,27.65-.76,4.52-1,9.33-2.89,13.37C597.78,576.15,594.09,577.67,591.5,579.69Z"/><path class="cls-25" d="M344.48,375.93l64.08.07c.46,1.44.91,2.89,1.47,4.66l3.35.17c0,.65-.05,1.3-.08,1.94-4.94.82-6.06,2.57-4.69,6.79a6.69,6.69,0,0,1,.11,4.41c-2.76,5.95-4.71,12.17-6.93,18.3-1.68,4.63-4.27,8.94-6.68,13.87.42.65,1.41,2.14,2.39,3.63-3,1.42-4.72,3.56-4.08,7.06-7.53,1-8,1.55-5,5.93v0l-4.23-4.63c-.87,2.23-1.87,4.78-2.9,7.44-.7-.79-1.27-1.45-2.17-2.48l-2.9,9.44c-5.62-3.77-9.2-2.64-10.74,4.48-.7-2-1-2.86-1-2.88a17.75,17.75,0,0,0-3.67,1.19,11.07,11.07,0,0,0-2.23,2.34l-4,0-1-10.8c-4.8,3.29-7.95,2.14-8.94-2.25-.36-1.59-.65-3.2-1-4.8.11-5.18,0-10.37.38-15.53.29-4.29,1.44-8.54,1.61-12.83.18-4.71-.6-9.46-.46-14.18.21-6.64.89-13.26,1.4-20.32Z"/><path class="cls-19" d="M545.53,574.86c-.43-.23-1.22-.43-1.24-.69-.51-6.32-.93-12.64-1.39-19-.08-1.18-.28-2.36-.43-3.54l-1.45-.07q-.43,3.6-.88,7.21l-1.17.14c-.22-2.08-.44-4.15-.72-6.85-2.41,7.25-5.11,1.56-7.74.74,1.41-3.37,2.62-6.86,4.29-10.11,2.5-4.88,6.23-9.32,7.82-14.45,2.65-8.58,4.23-17.52,5.85-26.38,1.12-6.13,1.66-12.38,2.26-18.6.68-7.14,1.3-14.3,1.64-21.47.43-8.88-3.07-17.31-2.91-26.34.13-6.53-2.45-13.11-3.8-19.67-2.1-10.2-4.06-20.42-8.94-29.8-1.66-3.18-2.83-6.62-4.23-9.95h16.14a11.31,11.31,0,0,0,2.35.71c8.26.72,9.93,1.86,11.34,9.53q2.4,13.11,3.95,26.38c.31,2.61-1.15,5.39-1.13,8.09,0,1.62,1.29,3.23,2.14,5.17.26-.18-.37.28-.42.31.94,3.3,2.7,6.39,2.48,9.33-.64,8.57-.88,17.05.34,25.59.41,2.8-.64,5.78-.68,8.68-.06,4.06.47,8.15.25,12.19-.35,6.27-1.1,12.53-1.75,18.78-.38,3.72-1.07,7.41-1.31,11.13-.43,6.66-3.87,12.89-2.52,19.84.23,1.21-1.83,2.71-2.27,4.24-.72,2.49-4.77,4.37-1.62,7.7.07.08-.57.7-.69,1.12-1.85,6.55-3.56,13.15-5.58,19.65-.4,1.29-1.94,2.22-3,3.32l0,0a27.34,27.34,0,0,0-2.26,2.57C547.26,571.86,546.43,573.38,545.53,574.86Z"/><path class="cls-26" d="M532.49,376.06c1.4,3.33,2.57,6.77,4.23,9.95,4.88,9.38,6.84,19.6,8.94,29.8,1.35,6.56,3.93,13.14,3.8,19.67-.16,9,3.34,17.46,2.91,26.34-.34,7.17-1,14.33-1.64,21.47-.6,6.22-1.14,12.47-2.26,18.6-1.62,8.86-3.2,17.8-5.85,26.38-1.59,5.13-5.32,9.57-7.82,14.45-1.67,3.25-2.88,6.74-4.29,10.11h0l-2,2c-2.87,1-6.33,1.39-8.48,3.25-3,2.64-5.94,2.89-9.5,2.34-2.93-.44-5.93-.49-8.46-1.78-2.39-1-4.87-1.87-7.15-3.07a12,12,0,0,1-3.5-3c-2.18-2.7-2.3-7.23-7-7.7-2.47-7.49-4.82-15-7.44-22.45a106.83,106.83,0,0,1-5.61-30.57c-.52-10.93-2.11-21.87-1.74-32.76.49-14.57,2-29.15,3.92-43.61,1-7.2,3.7-14.21,6-21.16,1.35-4,3.88-7.56,5.2-11.54.67-2-.18-4.48-.34-6.75ZM484.62,521.13c0,.47,0,1,0,1.42-.27.76-.94,1.63-.76,2.25,2.87,10,8.12,18.52,16.72,24.65,9.94,7.1,23.82.29,27.9-6.81a246.88,246.88,0,0,0,11.31-22.31c3.75-8.42,5.08-17.49,5.51-26.67-.55-1.68-1.64-3.39-1.55-5,.4-7.35,1.26-14.68,1.69-22a90.35,90.35,0,0,0-.13-12.53c-.34-4.28-1.56-8.51-1.78-12.8-.69-13.68-4.59-26.41-10.7-38.56-2.06-4-3.67-8.36-6.33-11.92a44.4,44.4,0,0,0-9.19-8.52c-6.53-4.89-14.37-.65-21.38-2.64-.31-.09-.88.33-1.16.66-7.87,9.16-12.4,20-15.13,31.55a164.71,164.71,0,0,0-4,25c-1,12.86-2,25.84-1.35,38.68.66,12.56,3.26,25,5.38,37.49C480.2,516,479.45,520.58,484.62,521.13Z"/><path class="cls-9" d="M633.59,376.08l-.75,6.09-1.21.07,3.25,4.51c-4.75,2.51-4.17,5.22-.91,7.17-1.53,6.25-2.92,12-4.32,17.66-.24,1-.42,2.72-.76,2.75-5.56.54-2.2,7.16-6.17,9-.82.38,0,3.54-.69,5.07-3.71,8.21-7.68,16.31-11.52,24.46-.76,1.62-1.35,3.32-2,5l-4.42.45a30.65,30.65,0,0,1,.24-4.71,49.83,49.83,0,0,1,1.83-5.51l-2.21-1.68c2.87-12.59,5.67-24.91,8.6-37.77l-1.19-.89c1-6.34,4.51-11.81,1-18.39,5.4-.68,7.89-3,5.36-8.72-.46-1,1.16-3,1.82-4.53Zm-4.47,6.66.22-.39-.57-.23a1.35,1.35,0,0,0,0,.45C628.82,382.66,629,382.69,629.12,382.74Z"/><path class="cls-15" d="M354.58,457.74l4,0c.42,5.81,3,8,8.41,5.47,6.47-3,12.6-7.07,15.59-14.61l2.34,3.06,3.53-8.82v0l5-5.93c-.64-3.5,1.1-5.64,4.08-7.06,2.15-4.68,4.12-9.46,6.55-14,.74-1.4,2.72-2.13,4.14-3.17.15,4.12-1.79,7.3-3.71,10.88-2.94,5.46-3.83,12-6.4,17.68-2.43,5.39-5.25,10.9-9.13,15.25-3.72,4.16-8.84,7.19-13.68,10.18a27,27,0,0,1-25.11,2.23c-1.67-.65-3.46-1-5.35-1.51a10.12,10.12,0,0,0-.74-3.1c-2.86-4.72-5-9.6-4.7-15.3,0-.67-1.13-1.4-1.74-2.11.61-3.26,1.42-6.51,1.79-9.8.72-6.31,1.41-12.64,1.72-19,.34-7,0-14.1.38-21.14S342.73,383,343.36,376l1.13-.07,2.1,1.1c-.51,7.06-1.19,13.68-1.4,20.32-.14,4.72.64,9.47.46,14.18-.17,4.29-1.32,8.54-1.61,12.83-.36,5.16-.27,10.35-.38,15.52.59,4.25.48,8.77,2,12.67,1.25,3.26,4.38,5.81,6.85,8.88C353.34,459.93,354,458.83,354.58,457.74Z"/><path class="cls-27" d="M413.38,380.83l-3.35-.17c-.56-1.77-1-3.22-1.47-4.66l6.82,0c0,.31.07.62.1.93Z"/><path class="cls-24" d="M415.48,377c0-.31-.07-.62-.1-.93h5.09l-2.9.82Z"/><path class="cls-9" d="M415.51,533.86c0-.35,0-.7,0-1.05l.83.74Z"/><path class="cls-24" d="M337.63,446.81c.61.71,1.77,1.44,1.74,2.11-.29,5.7,1.84,10.58,4.7,15.3a10.12,10.12,0,0,1,.74,3.1c1.89.52,3.68.86,5.35,1.51a27,27,0,0,0,25.11-2.23c4.84-3,10-6,13.68-10.18,3.88-4.35,6.7-9.86,9.13-15.25,2.57-5.7,3.46-12.22,6.4-17.68,1.92-3.58,3.86-6.76,3.71-10.88,0-.56,0-1.12,0-1.68.71-.61,1.83-1.09,2.06-1.84,2-6.53,4-13.07,5.69-19.68.89-3.46,1.17-7.08,1.73-10.63l3.7.39c-1.54,7.67-1.92,15.55-4.81,22.37-3.46,8.21-4,17.1-7.66,25.2-3.08,6.77-4.73,14.19-7.29,21.22-.63,1.73-2.39,3-3.51,4.61-2.63,3.69-5.24,7.4-7.73,11.18-.34.52.09,1.53.16,2.32L382.46,471l2.16,1.75c-.19.3-.3.68-.54.8-2.16,1.1-4.42,3.19-6.5,3-5.68-.43-9.59,7.52-16,3-1-.71-3.31-.29-4.69.34-3,1.33-5.09,1.29-6.47-3.65-.58,2.78-.88,4.25-1.16,5.6L344,476.28c-.44.6-.9,1.21-1.77,2.37-1.23-3.85-2.3-7.21-3.49-10.91l-2,.56C336.56,461.06,334.19,453.82,337.63,446.81Z"/><path class="cls-15" d="M417.67,378.78c-.56,3.55-.84,7.17-1.73,10.63-1.69,6.61-3.68,13.15-5.69,19.68-.23.75-1.35,1.23-2.05,1.84a14.28,14.28,0,0,1,.69-9.43,112.77,112.77,0,0,0,3.93-12.93,33.63,33.63,0,0,0,.48-5.8c0-.64.06-1.29.08-1.94l2.1-3.88,2.09-.1C417.61,377.49,417.64,378.14,417.67,378.78Z"/><path class="cls-19" d="M550.55,567.83l1.31,1-.32.32c-.35-.43-.69-.87-1-1.31Z"/><path class="cls-19" d="M528.56,554.84l2-2Z"/><path class="cls-27" d="M388.42,442.8l-3.53,8.82-2.34-3.06c-3,7.54-9.12,11.6-15.59,14.61-5.43,2.53-8,.34-8.41-5.47a11.07,11.07,0,0,1,2.23-2.34,17.75,17.75,0,0,1,3.67-1.19s.33.91,1,2.88c1.54-7.12,5.12-8.25,10.74-4.48l2.9-9.44c.9,1,1.47,1.69,2.17,2.48,1-2.66,2-5.21,2.9-7.44Z"/><path class="cls-27" d="M413.3,382.77a33.63,33.63,0,0,1-.48,5.8,112.77,112.77,0,0,1-3.93,12.93,14.28,14.28,0,0,0-.69,9.43c0,.56,0,1.12,0,1.68-1.42,1-3.4,1.77-4.14,3.17-2.43,4.53-4.4,9.31-6.55,14-1-1.49-2-3-2.39-3.63,2.41-4.93,5-9.24,6.68-13.87,2.22-6.13,4.17-12.35,6.93-18.3a6.69,6.69,0,0,0-.11-4.41C407.24,385.34,408.36,383.59,413.3,382.77Z"/><path class="cls-27" d="M354.58,457.74c-.62,1.09-1.24,2.19-2.1,3.69-2.47-3.07-5.6-5.62-6.85-8.88-1.49-3.9-1.38-8.42-2-12.67.32,1.61.61,3.22,1,4.81,1,4.39,4.14,5.54,8.94,2.25Z"/><path class="cls-27" d="M393.42,436.83l-5,5.93C385.44,438.38,385.89,437.85,393.42,436.83Z"/><path class="cls-28" d="M484.61,522.55c0-.47,0-.95,0-1.42.08-2,.64-4.06.11-5.83-.59-2-3.2-3.24-1.5-6,.31-.51-1.39-2.25-2.16-3.43l-.76-1.15,1.47-.95c-.92-3.91-2-7.15-2.39-10.47-.59-5.67-.8-11.38-1-17.08-.21-7.39-.25-14.79-.28-22.18,0-2.42.53-4.88.26-7.26-1.11-10,1.06-19.61,3.36-29.22,2.06-8.64,5.4-16.57,11.65-23.13,3.22-3.38,5.62-7.74,10.7-8.68,3.52-.64,8.2-2.56,10.46-1.05,5.22,3.48,9.31,8.67,13.82,13.21,1.54,1.55,3,3.22,4.43,4.83,6.11,12.15,10,24.88,10.7,38.56.22,4.29,1.44,8.52,1.78,12.8a90.35,90.35,0,0,1,.13,12.53c-.43,7.35-1.29,14.68-1.69,22-.09,1.64,1,3.35,1.55,5-.92,1.62-2.17,3.14-2.71,4.88-1.92,6.09-3.61,12.26-5.35,18.41-.47,1.7-.81,3.45-1.36,5.83-.59.47-2.23,1.25-3,2.55-2.94,4.93-5.57,10-8.41,15a7.7,7.7,0,0,1-2.14,2c-9.65,7.34-19.58,4.37-27.3-3.63-1.85-1.91-4.11-4.38-4.3-6.75C490.35,527.46,487.27,525.28,484.61,522.55Zm.42-51.21-.74,0a43.93,43.93,0,0,1,2,5.91c.69,3.33.59,6.87,1.63,10.06,2.1,6.43,4.73,12.69,7.16,19,.8,2.08,1.23,4.47,2.56,6.12a48.07,48.07,0,0,0,7.05,6.61c1.53,1.26,3.3,2.85,5.07,3,1.53.12,3.25-2.41,4.8-2.32,6.27.37,8.16-4.39,10.77-8.41,1.92-2.93,3.8-5.89,5.8-9l-1.19-1,4.72-1.1c-.05-.3-.11-.6-.16-.9l-4.94-.86a86.53,86.53,0,0,0,4.87-7.77c.56-1.12-.49-3.21.19-4.06,3.32-4.16,2.33-8.12.07-12.19,4.67-2.47,1.77-4.64-.47-6.76L536,466.5c-1-5.81-2-11.08-2.94-16.35-.08-.49-.31-1.19-.08-1.45,2.93-3.33.3-6.56-.55-9.46-2-6.78-4.7-13.36-7.25-20-.54-1.4-1.67-2.57-2.87-4.36-.6,1.67-.92,2.56-1.26,3.52-2-4.71-9.27-10.42-13.25-9.74-5.57.95-8.47,5.14-10.09,10.83l-2.23-3.08L490.1,435c-.31,2.5.28,6.8-1.42,9.8-3.77,6.65,2.26,14.75-3.75,20.72-.06.07.1.31.1.47C485,467.8,485,469.57,485,471.34Z"/><path class="cls-29" d="M532.82,402.71c-1.47-1.61-2.89-3.28-4.43-4.83-4.51-4.54-8.6-9.73-13.82-13.21-2.26-1.51-6.94.41-10.46,1.05-5.08.94-7.48,5.3-10.7,8.68-6.25,6.56-9.59,14.49-11.65,23.13-2.3,9.61-4.47,19.2-3.36,29.22.27,2.38-.28,4.84-.26,7.26,0,7.39.07,14.79.28,22.18.17,5.7.38,11.41,1,17.08.34,3.32,1.47,6.56,2.39,10.47l-1.47.95.76,1.15c.77,1.18,2.47,2.92,2.16,3.43-1.7,2.79.91,4.06,1.5,6,.53,1.77,0,3.87-.11,5.83-5.17-.55-4.42-5.09-4.95-8.17-2.12-12.45-4.72-24.93-5.38-37.49-.67-12.84.36-25.82,1.35-38.68a164.71,164.71,0,0,1,4-25c2.73-11.53,7.26-22.39,15.13-31.55.28-.33.85-.75,1.16-.66,7,2,14.85-2.25,21.38,2.64a44.4,44.4,0,0,1,9.19,8.52C529.15,394.35,530.76,398.71,532.82,402.71Z"/><path class="cls-29" d="M484.61,522.55c2.66,2.73,5.74,4.91,6.11,9.48.19,2.37,2.45,4.84,4.3,6.75,7.72,8,17.65,11,27.3,3.63a7.7,7.7,0,0,0,2.14-2c2.84-5,5.47-10.12,8.41-15,.77-1.3,2.41-2.08,3-2.55.55-2.38.89-4.13,1.36-5.83,1.74-6.15,3.43-12.32,5.35-18.41.54-1.74,1.79-3.26,2.71-4.88-.43,9.18-1.76,18.25-5.51,26.67a246.88,246.88,0,0,1-11.31,22.31c-4.08,7.1-18,13.91-27.9,6.81-8.6-6.13-13.85-14.61-16.72-24.65C483.67,524.18,484.34,523.31,484.61,522.55Z"/><path class="cls-20" d="M629.12,382.74c-.12-.05-.3-.08-.34-.17a1.35,1.35,0,0,1,0-.45l.57.23Z"/><path class="cls-30" d="M485,471.34c0-1.77,0-3.54,0-5.31,0-.16-.16-.4-.1-.47,6-6,0-14.07,3.75-20.72,1.7-3,1.11-7.3,1.42-9.8l5.42-18.6,2.23,3.08c1.62-5.69,4.52-9.88,10.09-10.83,4-.68,11.22,5,13.25,9.74.34-1,.66-1.85,1.26-3.52,1.2,1.79,2.33,3,2.87,4.36,2.55,6.61,5.26,13.19,7.25,20,.85,2.9,3.48,6.13.55,9.46-.23.26,0,1,.08,1.45.94,5.27,1.9,10.54,2.94,16.35l-1.78,1.13c2.24,2.12,5.14,4.29.47,6.76,2.26,4.07,3.25,8-.07,12.19-.68.85.37,2.94-.19,4.06a86.53,86.53,0,0,1-4.87,7.77l4.94.86c.05.3.11.6.16.9l-4.72,1.1,1.19,1c-2,3.12-3.88,6.08-5.8,9-2.61,4-4.5,8.78-10.77,8.41-1.55-.09-3.27,2.44-4.8,2.32-1.77-.15-3.54-1.74-5.07-3a48.07,48.07,0,0,1-7.05-6.61c-1.33-1.65-1.76-4-2.56-6.12-2.43-6.32-5.06-12.58-7.16-19-1-3.19-.94-6.73-1.63-10.06a43.93,43.93,0,0,0-2-5.91Z"/></g><g class="cls-31"><rect class="cls-32" x="304.52" y="629.85" width="362" height="2"/></g><g class="cls-31"><rect class="cls-33" x="309.52" y="345.85" width="362" height="2"/></g></g></g></svg>