<svg xmlns="http://www.w3.org/2000/svg" viewBox="0 0 1025.98 1025.98"><defs><style>.cls-1{fill:#f0b90b;fill-rule:evenodd;}.cls-2{fill:#fff;}</style></defs><g id="Layer_2" data-name="Layer 2"><g id="Layer_1-2" data-name="Layer 1"><path class="cls-1" d="M513,0c283.34,0,513,229.65,513,513s-229.65,513-513,513S0,796.33,0,513,229.65,0,513,0Z"/><path class="cls-2" d="M281.94,513l.37,135.65,115.26,67.82v79.42L214.86,688.72V473.33L281.94,513Zm0-135.64v79l-67.12-39.71v-79l67.12-39.71,67.45,39.71-67.45,39.71ZM445.7,337.64l67.13-39.71,67.45,39.71-67.45,39.71L445.7,337.64Z"/><path class="cls-2" d="M330.44,620.52V541.11l67.13,39.71v79l-67.13-39.34ZM445.7,744.91l67.13,39.7,67.45-39.7v79l-67.45,39.71L445.7,824v-79ZM676.55,337.64l67.12-39.71,67.46,39.71v79l-67.46,39.71v-79l-67.12-39.71Zm67.12,311L744,513l67.13-39.71v215.4L628.46,795.84V716.42l115.21-67.78Z"/><polygon class="cls-2" points="695.54 620.52 628.41 659.86 628.41 580.82 695.54 541.11 695.54 620.52"/><path class="cls-2" d="M695.54,405.46l.37,79.42L580.32,552.7v136L513.2,728l-67.13-39.33v-136L330.49,484.88V405.46l67.41-39.71,114.89,68.16,115.58-68.16,67.46,39.71Zm-365.1-135.6L512.83,162.32,695.54,269.86l-67.12,39.7L512.83,241.41,397.57,309.56l-67.13-39.7Z"/></g></g></svg>