<svg xmlns="http://www.w3.org/2000/svg" viewBox="0 0 1036 1033.41"><defs><style>.cls-1{fill:#221e1f;}.cls-2{fill:#fff;}.cls-3{fill:#12a055;}</style></defs><g id="Layer_2" data-name="Layer 2"><g id="Layer_1-2" data-name="Layer 1"><path class="cls-1" d="M1034.34,471.42c-.3-8.14-1.37-16.25-2.11-24.37a9.86,9.86,0,0,0-.21-1.43c-1.43-6.41-3-12.78-4.25-19.23-1.6-8.42-2.58-17-4.41-25.34-2.1-9.67-4.78-19.23-7.29-28.82-1.41-5.36-2.75-10.75-4.55-16-1.7-4.93-4.14-9.61-6-14.52-3.1-8.3-5.73-16.77-9-25-2-5.09-5.25-9.7-7.28-14.79a292.71,292.71,0,0,0-23.17-46.22c-6.38-10.28-12.81-20.55-19.66-30.52-7.49-10.91-14.94-21.93-23.4-32.08-12.75-15.24-25.77-30.36-39.78-44.42C870.66,136,856.78,124.53,843,113.06c-9.95-8.3-20.37-16.09-31-23.46a495.92,495.92,0,0,0-95.61-51.37A509.89,509.89,0,0,0,574.25,2.84C563.89,1.81,553.5,1,543.12,0H496.79c-1.73.28-3.44.67-5.17.82-11.53,1-23.08,1.71-34.58,3a502.59,502.59,0,0,0-132.62,34,517.79,517.79,0,0,0-184,126A512.58,512.58,0,0,0,29.54,344.49c-4.91,13.71-9.08,27.69-13.09,41.69-2.81,9.8-5,19.78-7,29.77-1.87,9.25-3.44,18.6-4.54,28C3,460.13.55,476.37.13,492.64c-.52,20.33.61,40.71,1.36,61.05.35,9.93,1.33,19.82,2.23,29.72A134.66,134.66,0,0,0,5.93,599c1.84,8.7,4.2,17.28,6.15,26,2.18,9.72,3.54,19.66,6.34,29.18,4.29,14.6,9,29.15,14.48,43.31,6.06,15.59,12.75,31,20.11,46,7,14.39,13.6,29.06,23.18,42.15,7.63,10.43,14.09,21.71,21.54,32.28,6.66,9.44,13.73,18.61,21,27.56,6.29,7.71,13,15.07,19.79,22.37,6.46,7,12.85,14.06,19.91,20.39C173.73,901.85,189,915.58,205,928.26c11.68,9.23,24.55,17,37,25.1q13.31,8.7,27.07,16.68c5.07,2.92,10.6,5,15.9,7.55,9.84,4.72,19.44,10,29.52,14.1,15.91,6.49,32.13,12.25,48.24,18.24a82.28,82.28,0,0,0,8.19,2.33c9.12,2.4,18.2,5,27.38,7.08,7.39,1.7,14.94,2.77,22.39,4.27,9.68,2,19.3,4.27,29,6.05a144.23,144.23,0,0,0,17.6,2c14,.79,27.95,2,41.9,1.74,21.48-.44,43-1.8,64.4-3.17,8.61-.55,17.16-2.09,25.72-3.39,4.86-.73,9.65-1.89,14.47-2.86,7.47-1.5,15-2.91,22.42-4.53,7.21-1.57,14.45-3.12,21.55-5.13,7.92-2.24,15.7-5,23.51-7.54,8-2.66,16.25-5,24.09-8.17,12.37-5,24.73-10.22,36.67-16.2,15.29-7.67,30.31-15.92,45.14-24.46,8-4.6,15.42-10.2,23-15.55,8.53-6,17.09-12.08,25.3-18.55,8.89-7,17.51-14.33,26-21.81,8.86-7.8,17.7-15.68,26-24s16-17,23.68-25.81c6.86-7.88,13.45-16,19.9-24.22,4.08-5.22,7.68-10.84,11.47-16.29,3.43-4.93,7-9.75,10.25-14.82,6.33-10,12.92-19.91,18.54-30.33,7.3-13.53,14.17-27.33,20.47-41.36,4.64-10.31,8.13-21.16,12-31.8,4.11-11.24,8.64-22.37,12-33.84,3.83-13.3,6.78-26.85,9.68-40.4,2.57-12,5.18-24.15,6.64-36.36,1.92-16.18,3.58-32.48,3.8-48.77C1036.24,513.13,1035.13,492.26,1034.34,471.42Zm-15.89,53.43c-.4,26.3-2.1,52.46-7,78.22C989.33,718.64,935.16,816.69,846,893.55c-96.58,83.26-209.45,124.24-337.53,122.33-101.81-1.52-193.75-33.16-277.8-89.51C91.49,822.16,17.44,684.76,17.51,509.28c0-94.39,25.13-182.14,76.38-260.52,99.49-152.19,242-229.59,423.6-234.23a451.65,451.65,0,0,1,117,13.15C741.35,54.52,831.55,109.2,902,194.12Q1021,337.58,1018.45,524.85Z"/><path class="cls-2" d="M518,1017.22A500.64,500.64,0,0,1,323.17,55.53,500.64,500.64,0,0,1,712.83,977.88,497.5,497.5,0,0,1,518,1017.22Z"/><path class="cls-3" d="M518,957.79A441.21,441.21,0,0,1,346.3,110.28,441.2,441.2,0,0,1,689.7,923.12,438.27,438.27,0,0,1,518,957.79Z"/><path class="cls-1" d="M518,90.59c235.34,0,426.11,190.78,426.11,426.11S753.34,942.82,518,942.82,91.89,752,91.89,516.7,282.66,90.59,518,90.59m0-29.95A456.18,456.18,0,0,0,340.47,936.92,456.18,456.18,0,0,0,695.53,96.49,453.19,453.19,0,0,0,518,60.64Z"/><path class="cls-2" d="M357.54,717.15a17.79,17.79,0,0,1-2.13-.13,76.68,76.68,0,0,1-9.87-2.2c-1.56-.43-3-.83-4.5-1.17-7.8-1.81-12.18-8.85-10.43-16.72.11-.48.24-1,.37-1.49a13.16,13.16,0,0,0,.34-1.57c-.23-9.06,1.5-17.64,3.17-25.93.68-3.41,1.33-6.63,1.85-9.89.24-1.44.52-2.83.79-4.16a38.57,38.57,0,0,0,1-7c.11-14,11.23-18.19,17.21-20.45,2.58-1,5.23-2.07,7.79-3.13,3.94-1.63,8-3.31,12.23-4.73,8.77-3,18.16-5.85,28.7-8.81,4.2-1.17,8.46-2.18,12.57-3.16l4.24-1c-2.79-2.63-5.81-5.51-8.81-8.43L410,595.06c-6.28-6.13-12.78-12.46-19.05-18.85-1.78-1.81-3.39-3.69-4.95-5.5a73.11,73.11,0,0,0-5.56-6,3,3,0,0,0-.84-.31l-1.7.42c-10.77,2.64-21.9,5.37-32.38,9a305.5,305.5,0,0,0-34.05,14c-3.93,1.91-7.75,5.53-11.44,9l-1.4,1.32c-4.75,4.45-10.5,6.61-17.6,6.61a48.83,48.83,0,0,1-6.78-.52c-6.94-1-11.28-5.92-11.35-13,0-3.21-.31-6.47-.61-9.93a111,111,0,0,1-.59-14.82c.62-12.67,2.28-25.21,3.83-35.8a16.84,16.84,0,0,1,9-11.79c8.95-4.13,18.2-7.61,26.06-10.47,4.29-1.57,8.66-3,12.89-4.33,1.49-.48,3-1,4.53-1.46-2.69-2.55-5.32-5.12-7.9-7.64l-1.13-1.1c-8.94-8.72-16.3-16-23.15-22.73-6.45-6.4-13.34-13.27-20-20.14a92.2,92.2,0,0,1-7.25-8.63,3.93,3.93,0,0,0-3.56-1.78,11.62,11.62,0,0,0-2.27.26l-4.9,1c-6.53,1.28-12.69,2.5-18.76,4.2a147.38,147.38,0,0,0-19.06,7c-11.09,4.83-19.49,8.8-27.26,12.87-4.62,2.42-9,5.3-13.67,8.36-1.53,1-3.07,2-4.61,3a6.29,6.29,0,0,0-1.51,1.5,17.78,17.78,0,0,0-.93,1.77c-1.22,2.53-3.06,6.36-7.35,7.44-6.19,1.56-12.64,1.8-18.33,2h-.54a24.69,24.69,0,0,1-6.68-1.15c-.91-.24-1.85-.5-2.83-.71l-4.71-1-.59-4.78c-.14-1.18-.33-2.4-.52-3.65a78.09,78.09,0,0,1-1.06-10.11l0-2.43c-.18-9.95-.37-20.24.27-30.46A138.14,138.14,0,0,1,124,408.14c1.54-5.62,7.45-8.26,13.38-10.48,9.68-3.61,20.09-7.23,33.78-11.73,13.24-4.34,23.16-13.34,30.36-27.52,1.47-2.91,2.79-5.9,4.18-9.07,1-2.26,2-4.6,3.12-6.91.55-1.17,1.07-2.36,1.6-3.55a56,56,0,0,1,6.57-12.05c3.08-4,7.84-6,11.66-7.62l.79-.33a33,33,0,0,1,11.51-2.61h.56a15.36,15.36,0,0,1,10.19,4.07c5.85,5.67,11.69,11.53,17.34,17.19q5.61,5.63,11.26,11.22c3.76,3.73,7.63,7.49,11.38,11.12,4.58,4.45,9.32,9.05,13.94,13.66,3.06,3.05,6,6.22,8.92,9.28,2.13,2.27,4.33,4.61,6.52,6.85,7.35,7.54,14.6,14.81,20.71,20.92,3.57,3.57,7.18,7.12,10.78,10.67s7.25,7.14,10.85,10.73c3.28,3.28,6.52,6.58,9.77,9.89,3.59,3.65,7.3,7.42,11,11.08,3.24,3.25,6.58,6.51,9.81,9.66s6.62,6.47,9.91,9.76c4.24,4.26,8.51,8.6,12.63,12.8,3.35,3.41,6.69,6.82,10.06,10.21,6.45,6.51,13.23,13.29,20.16,20.18q5.52,5.48,11.06,10.92c3,2.93,5.95,5.86,8.91,8.8l8.26,8.22c5,5,10.18,10.15,15.31,15.16,2.48,2.43,5.07,4.88,7.57,7.25,5.22,5,10.62,10.06,15.65,15.5,4.6,5,2.44,13.5,2,15.16a77.34,77.34,0,0,1-3.86,9.91c-.79,1.79-1.54,3.48-2.2,5.17-1.86,4.8-3.69,9.72-5.45,14.48q-1.75,4.71-3.53,9.42l-.85,2.28c-1.32,3.51-2.69,7.15-4.26,10.72-2.69,6.12-5.67,12.5-8.85,19a11,11,0,0,1-8,5.53c-3.9.56-7.83,1.07-11.64,1.56-6.24.8-12.7,1.64-18.93,2.73A104.68,104.68,0,0,0,434.18,681l-3,1-5,1.55c-7.1,2.21-14.45,4.5-21.39,7.17-5.72,2.2-11.5,4.8-17.09,7.32-3.33,1.51-6.78,3.06-10.23,4.54-3.89,1.66-6.23,4.18-7.85,8.46C367.55,716.55,360.48,717.15,357.54,717.15Z"/><path class="cls-1" d="M241.46,323a8.51,8.51,0,0,1,5.47,2.15c9.64,9.34,19,18.94,28.56,28.37,8.39,8.3,16.95,16.42,25.3,24.76,5.25,5.23,10.2,10.76,15.38,16.07q10.31,10.56,20.77,21c7.17,7.16,14.45,14.23,21.63,21.4,6.95,6.95,13.79,14,20.75,21,6.53,6.53,13.19,12.89,19.72,19.42,7.6,7.61,15.08,15.34,22.66,23q10.07,10.15,20.21,20.22c6.64,6.6,13.32,13.14,20,19.73,7.87,7.8,15.67,15.66,23.6,23.41,7.67,7.5,15.72,14.65,23,22.5,1.54,1.67,1.21,6,.43,8.69-1.45,5-4,9.64-5.88,14.52-3.08,7.95-6,16-9,23.95-1.61,4.24-3.15,8.52-5,12.66q-4.14,9.44-8.72,18.68a4.34,4.34,0,0,1-2.9,1.84c-10.25,1.48-20.56,2.53-30.76,4.32-5.94,1-11.73,3.07-17.52,4.88-9,2.83-18,5.49-26.77,8.87-9.33,3.59-18.34,8-27.55,12-5.68,2.42-9.29,6.41-11.52,12.28-.41,1.09-3.43,1.75-5.77,1.75a9.44,9.44,0,0,1-1.24-.07c-4.64-.62-9.15-2.18-13.73-3.25-4.19-1-6.32-4.33-5.35-8.66a21.32,21.32,0,0,0,.87-4.67c-.3-11.82,3.09-23.1,4.93-34.61.66-4.07,1.86-8.13,1.9-12.2.06-8.78,6.08-11.63,12.83-14.18s13.09-5.52,19.8-7.79c9.36-3.17,18.84-6,28.36-8.69,8-2.26,16.24-3.87,24.27-6.1,2.62-.74,2.65-2.71.57-4.63-4.69-4.37-9.36-8.76-13.94-13.24-7.08-6.9-14.17-13.78-21.09-20.82-3.74-3.81-6.89-8.2-10.79-11.81a8.94,8.94,0,0,0-5.51-2.07,4.93,4.93,0,0,0-1.12.12c-11.76,2.89-23.59,5.72-35,9.64a312.69,312.69,0,0,0-34.8,14.34c-5.43,2.64-10,7.27-14.52,11.5-3.94,3.69-8.36,4.78-13,4.78a43.34,43.34,0,0,1-5.86-.46c-3.14-.43-5.46-2.14-5.5-6.32-.09-8.12-1.61-16.28-1.21-24.36.57-11.76,2.06-23.5,3.76-35.16a10.29,10.29,0,0,1,5.16-6.62c8.33-3.83,16.93-7.12,25.55-10.26,7.77-2.84,15.76-5.1,23.57-7.86,2.59-.91,3.27-2.63.78-4.89-4.61-4.22-9.08-8.6-13.55-13q-11.6-11.31-23.11-22.7c-6.69-6.63-13.36-13.27-19.92-20a84.55,84.55,0,0,1-6.71-8,10.64,10.64,0,0,0-8.95-4.44,18.37,18.37,0,0,0-3.62.39c-8.08,1.64-16.23,3.08-24.14,5.3a154.62,154.62,0,0,0-19.93,7.35c-9.37,4.08-18.66,8.34-27.7,13.08-6.51,3.41-12.59,7.68-18.79,11.66a12.75,12.75,0,0,0-3.33,3.22c-1.6,2.21-2.56,6.14-4.47,6.62-5.46,1.38-11.25,1.6-16.93,1.81h-.29c-2.36,0-4.79-1-8.08-1.71-.51-4.07-1.45-8.56-1.54-13.06-.19-10.78-.46-21.59.21-32.33a132.19,132.19,0,0,1,4.1-26.29c.72-2.65,5.78-4.63,9.23-5.93,11.07-4.13,22.28-7.94,33.52-11.63,16-5.26,26.83-16.22,34.27-30.89,2.67-5.28,4.85-10.8,7.38-16.15,2.31-4.89,4.17-10.16,7.41-14.36,2.17-2.81,6.25-4.37,9.75-5.86A26.5,26.5,0,0,1,241.2,323h.26m0-13.53c-.3,0-.59,0-.88,0a39.79,39.79,0,0,0-13.86,3.14L226,313c-4.31,1.82-10.22,4.31-14.4,9.73a62.29,62.29,0,0,0-7.39,13.44c-.53,1.2-1,2.33-1.53,3.39-1.13,2.39-2.18,4.78-3.19,7.08-1.36,3.08-2.63,6-4,8.73C189,368,180.61,375.7,169,379.51c-13.78,4.52-24.27,8.16-34,11.81-5.24,2-15,5.62-17.54,15a144.72,144.72,0,0,0-4.55,29c-.66,10.5-.47,20.93-.28,31l0,2.41a83.91,83.91,0,0,0,1.14,11c.19,1.24.37,2.41.5,3.47l1.18,9.55,9.41,2c.81.17,1.62.39,2.48.62a31.14,31.14,0,0,0,8.44,1.38h.77c6.06-.23,12.89-.48,19.75-2.21,7.37-1.86,10.36-8.07,11.81-11.06.1-.22.25-.52.36-.75q2.16-1.4,4.3-2.81c4.51-3,8.77-5.76,13.1-8,7.62-4,15.89-7.9,26.82-12.65a140.81,140.81,0,0,1,18.19-6.74c5.81-1.63,11.86-2.82,18.25-4.08l4.82-1a96.44,96.44,0,0,0,7,8.23c6.69,6.9,13.61,13.79,20.08,20.21,6.89,6.82,14.26,14.06,23.19,22.78l.95.92q-3.45,1.14-6.95,2.4c-8,2.91-17.39,6.46-26.56,10.69a23.49,23.49,0,0,0-12.88,16.91c-1.58,10.8-3.26,23.54-3.89,36.5a114.82,114.82,0,0,0,.6,15.72c.29,3.33.56,6.46.59,9.44.1,10.45,6.84,18.14,17.17,19.57a56.45,56.45,0,0,0,7.72.59c8.77,0,16.25-2.84,22.22-8.44l1.42-1.34c3.47-3.29,6.76-6.4,9.76-7.86a299.3,299.3,0,0,1,33.28-13.71c9.71-3.33,19.69-5.82,30.21-8.4,1,1,1.94,2.18,2.95,3.36,1.63,1.9,3.31,3.87,5.25,5.84,6.32,6.43,12.84,12.79,19.14,18.93l2.07,2q-2.5.63-5,1.33c-10.65,3-20.16,5.9-29,8.91-4.42,1.49-8.6,3.22-12.64,4.89-2.63,1.09-5.12,2.12-7.61,3.06-4.2,1.59-9,3.6-13.2,7.37a25.59,25.59,0,0,0-8.37,19.36,35.31,35.31,0,0,1-.88,5.71c-.29,1.41-.59,2.86-.84,4.43-.51,3.15-1.14,6.3-1.81,9.64-1.7,8.43-3.45,17.15-3.31,26.69l-.12.46c-.13.48-.28,1.09-.43,1.76a20.35,20.35,0,0,0,15.5,24.73c1.35.31,2.77.7,4.27,1.1a81,81,0,0,0,10.74,2.38,22.71,22.71,0,0,0,3,.19c9.06,0,15.95-3.93,18.43-10.5,1.08-2.85,2.3-3.82,4.17-4.62,3.52-1.51,7-3.08,10.37-4.59,5.75-2.6,11.19-5.05,16.73-7.18,6.73-2.59,13.65-4.74,21-7l5-1.56,3-1A101.35,101.35,0,0,1,449,684c6.07-1.07,12.17-1.85,18.63-2.68,3.83-.49,7.79-1,11.73-1.58,4.26-.62,10.22-3.41,13.09-9.23h0c3.21-6.52,6.23-13,9-19.23,1.64-3.73,3-7.46,4.39-11.06l.85-2.26q1.79-4.73,3.53-9.46c1.77-4.73,3.59-9.63,5.43-14.38.59-1.55,1.31-3.16,2.07-4.87a84,84,0,0,0,4.18-10.76c.92-3.21,3.4-14.2-3.49-21.65-5.19-5.6-10.67-10.8-16-15.82-2.48-2.35-5.05-4.78-7.5-7.17-5.09-5-10.24-10.11-15.22-15.08q-4.14-4.14-8.31-8.27l-9-8.91c-3.59-3.54-7.31-7.2-10.94-10.81-6.89-6.84-13.66-13.62-20.13-20.14-3.35-3.38-6.75-6.84-10-10.19-4.13-4.21-8.4-8.57-12.66-12.83-3.32-3.32-6.71-6.63-10-9.82s-6.53-6.39-9.74-9.6c-3.66-3.65-7.36-7.41-10.93-11-3.21-3.26-6.52-6.63-9.82-9.93-3.64-3.63-7.33-7.27-10.9-10.78s-7.19-7.09-10.75-10.64c-5.71-5.71-13.23-13.26-20.63-20.85-2.15-2.2-4.24-4.42-6.45-6.77-2.92-3.1-5.93-6.3-9.07-9.43-4.64-4.64-9.4-9.25-14-13.72-3.73-3.62-7.59-7.37-11.33-11.07s-7.55-7.51-11.22-11.19c-5.67-5.68-11.54-11.56-17.45-17.29a22.13,22.13,0,0,0-14.88-6Z"/><path class="cls-2" d="M677.38,715.85c-4.16,0-7-3-8.84-5l-.68-.71c-1.21-1.22-2.29-2.46-3.33-3.66a35.79,35.79,0,0,0-3.71-3.94c-5.7-4.86-13-7.45-20.64-10.19-2.19-.78-4.47-1.59-6.71-2.46A175.82,175.82,0,0,0,613.85,684c-3-.77-6-1.57-9.07-2.42-2.11-.59-4.22-1.21-6.32-1.83-5.07-1.49-9.85-2.9-14.74-4a101.82,101.82,0,0,0-16.8-2.4l-1.22-.06c-8.92-.44-12.18-1-15.66-9.07-.49-1.15-1.11-2.57-2-4.33-3.76-7.47-6.82-15.18-9.89-23.08-3.8-9.82-7.28-19.58-11.1-30.41l-.56-1.57a56.2,56.2,0,0,1-3.37-12.5,17.23,17.23,0,0,1,4.55-13c8.73-9,17.77-18,26.52-26.69l7.49-7.45,13.24-13.15c9.21-9.14,18.72-18.59,28-27.94,3.87-3.89,7.73-8,11.48-11.89,4.08-4.3,8.31-8.75,12.61-13,6.5-6.49,13.17-13,19.62-19.31,6-5.87,12.22-11.93,18.25-18,4.27-4.25,8.54-8.68,12.66-13s8.27-8.59,12.51-12.82c7.1-7.08,14.37-14.2,21.41-21.08q7.9-7.75,15.79-15.52c12.1-12,24.36-24.18,36.21-36l7.09-7.08c1.13-1.12,2.27-2.22,3.42-3.32a88.67,88.67,0,0,0,8.11-8.48,17.91,17.91,0,0,1,14.37-7.15,24,24,0,0,1,5.83.78c10.76,2.75,17.68,8.23,22.44,17.76,1.9,3.83,3.58,7.75,5.19,11.55,3.73,8.74,7.24,17,13.28,23.68,7.28,8.06,16.31,13.79,27.62,17.51,10.81,3.57,23.52,7.9,35.89,13,6.08,2.51,7.79,11.08,7.93,14.17.68,14,1.13,28.16,1.57,41.88q.28,8.88.59,17.75c.33,9.44-5.39,13.92-11.2,14.17-1.36.06-2.78.09-4.22.09-5.56,0-11-.42-17.47-1-4.86-.49-8.27-5.08-9.38-8-1-2.79-3.52-4.38-7.52-6.73l-1.74-1a287.9,287.9,0,0,0-25.41-13.69c-4.7-2.23-9.58-4.06-14.75-6-2.44-.91-5-1.85-7.46-2.83-1.71-.69-3.34-1.44-4.91-2.18a34.29,34.29,0,0,0-7.78-2.94,219.19,219.19,0,0,0-25.6-2.8c-.42.4-.92.91-1.27,1.27s-.58.6-.85.87c-3.43,3.4-6.87,6.93-10.2,10.33-3,3.11-6.17,6.32-9.31,9.46-4.43,4.42-9,8.87-13.35,13.16-3.25,3.19-6.51,6.38-9.74,9.59l-.7.69c-4.69,4.64-9.52,9.41-14.22,14.2l5.91,2.44c11.28,4.64,21.93,9,32.85,13.07,9.5,3.5,14.28,10.31,14.6,20.8.22,7,.51,14.13.78,21,.37,9.31.75,19,1,28.45.34,13.08-7.36,15.76-15.74,16.72a26.72,26.72,0,0,1-2.94.16c-10.21,0-16.75-6.2-22-11.19-5.1-4.83-11.45-8.53-20-11.63-3.39-1.23-6.68-2.62-9.86-4-3.38-1.42-6.58-2.77-9.84-3.94-3.53-1.26-7.21-2.21-11.1-3.21-1.44-.37-2.88-.74-4.32-1.13-3.26-.88-6.55-1.75-9.83-2.62q-5.5-1.44-11-2.92a9.42,9.42,0,0,0-1.48,1.35l-4.66,4.83q-5.15,5.36-10.32,10.69l-.95,1c-7.11,7.29-14.47,14.83-21.83,22.16-.53.54-1.08,1-1.63,1.51,12.54,3.4,23.81,6.55,34.28,9.58,8.91,2.57,17.62,5.15,26.34,8.37a59.5,59.5,0,0,1,15,8.17c3,2.23,5,6,6.17,11.39.72,3.31,1.15,6.59,1.55,9.76.28,2.12.54,4.13.88,6.11.42,2.46.92,4.89,1.44,7.46.92,4.44,1.86,9,2.36,13.76a209.2,209.2,0,0,1,.87,21.54v1.69c0,4.56-4.35,8.77-8.32,9.47a185.64,185.64,0,0,1-20,2.77Z"/><path class="cls-1" d="M796.46,324.32a16.52,16.52,0,0,1,4.16.57c8,2,13.84,5.77,18,14.22,6.16,12.35,9.87,26.07,19.51,36.75,8.49,9.39,18.65,15.48,30.53,19.4s23.81,8,35.42,12.83c2.08.86,3.62,5.34,3.76,8.24,1,19.84,1.46,39.7,2.15,59.55.13,3.6-1.1,7-4.73,7.17-1.31.06-2.62.08-3.94.08-5.6,0-11.23-.47-16.81-1-1.36-.13-3.12-2.14-3.69-3.67-2.15-5.85-7.44-8.36-12.09-11.18a291.88,291.88,0,0,0-26-14c-7.31-3.48-15.07-6-22.62-9-4.67-1.86-9.17-4.63-14-5.49a231.43,231.43,0,0,0-27.93-3h-.11c-1.82,0-4,2.53-5.63,4.19-6.58,6.53-13,13.24-19.52,19.79-7.64,7.64-15.4,15.14-23.07,22.73-6.15,6.08-12.3,12.16-18.3,18.37a18.47,18.47,0,0,0-2.6,4.25c16.19,6.56,31.53,13.16,47.16,18.94,7.34,2.7,10,7.46,10.18,14.66.52,16.48,1.36,32.95,1.77,49.44.19,7.46-2.26,9-9.75,9.82a18.15,18.15,0,0,1-2.17.13c-7.46,0-12.35-4.59-17.35-9.33-6.43-6.11-14.05-10.08-22.32-13.09-6.65-2.42-13.06-5.54-19.74-7.92-5.18-1.85-10.59-3.06-15.91-4.5-7-1.88-14-3.68-20.93-5.57a7,7,0,0,0-1.8-.25c-2.55,0-4.43,1.6-6.23,3.47-5,5.16-9.92,10.35-14.94,15.48-7.53,7.72-15.07,15.45-22.71,23.07-2.25,2.24-5.08,3.93-7.21,6.25-1.76,1.94-1.75,3.79,1.57,4.68q20.64,5.55,41.18,11.45c8.7,2.51,17.4,5.08,25.88,8.21a52.66,52.66,0,0,1,13.23,7.23c2,1.5,3.05,4.77,3.63,7.43,1.12,5.12,1.48,10.4,2.37,15.58,1.19,6.94,3,13.8,3.75,20.78a223.29,223.29,0,0,1,.84,22.56c0,1-1.64,2.57-2.74,2.77a176.94,176.94,0,0,1-19.26,2.68h-.1c-1.51,0-3.31-2.27-4.72-3.7-2.56-2.57-4.7-5.62-7.44-8-8.48-7.23-19.26-9.92-29.3-13.82-9.44-3.66-19.51-5.74-29.31-8.5-7.13-2-14.2-4.3-21.42-5.91a107.3,107.3,0,0,0-17.92-2.55c-11.3-.57-8.3,0-13.18-9.75-3.66-7.28-6.68-14.89-9.63-22.49-3.87-10-7.45-20.11-11-30.21-1.45-4.12-3.1-8.3-3.58-12.58a10.52,10.52,0,0,1,2.68-7.52c11.13-11.53,22.57-22.75,33.93-34.05,13.76-13.7,27.59-27.34,41.26-41.11,8.14-8.2,15.91-16.76,24.07-24.92,12.53-12.53,25.33-24.76,37.87-37.26,8.51-8.48,16.67-17.31,25.17-25.79,12.31-12.28,24.82-24.36,37.18-36.58q21.74-21.48,43.32-43.09c4.09-4.06,8.48-7.9,12-12.38a11.07,11.07,0,0,1,9.07-4.59m0-13.53h0a24.48,24.48,0,0,0-19.66,9.69,83,83,0,0,1-7.51,7.82c-1.14,1.1-2.31,2.23-3.49,3.4l-7.06,7c-11.86,11.82-24.12,24.05-36.23,36-5.22,5.16-10.57,10.39-15.74,15.46-7,6.9-14.35,14-21.48,21.16-4.29,4.28-8.52,8.67-12.61,12.92s-8.34,8.67-12.55,12.86c-6,6-12.2,12-18.19,17.89-6.47,6.32-13.17,12.86-19.7,19.39-4.36,4.36-8.62,8.84-12.74,13.17-3.71,3.91-7.56,7.95-11.37,11.78-9.28,9.36-18.82,18.83-28,28l-13.17,13.08q-3.72,3.72-7.46,7.42c-8.78,8.71-17.86,17.72-26.65,26.82a24.14,24.14,0,0,0-6.4,18.42,61.59,61.59,0,0,0,3.72,14c.19.52.37,1,.55,1.54,3.83,10.87,7.32,20.67,11.17,30.61C535,647.36,538.11,655.23,542,663c.79,1.58,1.34,2.85,1.82,4,1.36,3.16,3.42,7.93,9,10.77,3.81,1.95,7.48,2.13,12.55,2.38l1.22.06a94.6,94.6,0,0,1,15.65,2.24c4.67,1,9.35,2.42,14.31,3.88,2.08.61,4.23,1.24,6.39,1.85,3.1.87,6.21,1.68,9.21,2.45A172.34,172.34,0,0,1,631,696.21c2.33.91,4.64,1.73,6.88,2.53,7.08,2.53,13.76,4.91,18.53,9a34.46,34.46,0,0,1,3,3.2c1.07,1.24,2.27,2.63,3.66,4,.17.16.35.36.54.57,2.17,2.3,6.69,7.1,13.77,7.1.34,0,.69,0,1,0a192.52,192.52,0,0,0,20.73-2.87c6.72-1.19,14-7.73,13.87-16.21v-1.63a219.69,219.69,0,0,0-.91-22.26c-.54-5-1.52-9.78-2.46-14.38-.52-2.51-1-4.88-1.41-7.23-.31-1.84-.56-3.78-.83-5.84-.42-3.31-.87-6.74-1.65-10.34-1.55-7.07-4.4-12.1-8.72-15.35a66.62,66.62,0,0,0-16.67-9.11c-8.93-3.29-17.78-5.91-26.81-8.52-7.25-2.09-14.89-4.25-23.07-6.51,5.14-5.2,10.25-10.43,15.23-15.53l.93-1c3.48-3.55,7-7.18,10.33-10.68q1.62-1.7,3.25-3.38l7.35,1.94,9.77,2.6,4.38,1.15c3.74,1,7.27,1.87,10.49,3s6.22,2.42,9.51,3.81,6.63,2.8,10.16,4.08c7.64,2.78,13.24,6,17.64,10.19,5.81,5.51,13.76,13,26.66,13a32.87,32.87,0,0,0,3.69-.21c5.52-.63,22.3-2.54,21.75-23.62-.24-9.54-.62-19.2-1-28.54-.27-6.88-.56-14-.78-21-.51-16.65-10.63-23.83-19-26.93-9.69-3.58-19.22-7.46-29.18-11.56q3.6-3.59,7.16-7.1l.59-.58c3.22-3.19,6.52-6.43,9.72-9.56,4.39-4.31,8.94-8.76,13.4-13.21,3.17-3.17,6.32-6.39,9.36-9.51,3.31-3.39,6.74-6.9,10.13-10.26a202.69,202.69,0,0,1,21.78,2.51,30.42,30.42,0,0,1,6.1,2.41c1.58.74,3.38,1.58,5.28,2.33,2.56,1,5.11,2,7.58,2.89,5,1.88,9.78,3.65,14.21,5.76a280,280,0,0,1,24.82,13.37l1.81,1.08c1.52.89,4.36,2.57,4.6,3.2v.06c2.1,5.64,7.57,11.66,15,12.4,6.69.65,12.31,1.08,18.14,1.08,1.55,0,3.07,0,4.53-.1,10.64-.45,18.07-9.34,17.66-21.15q-.31-8.87-.59-17.73c-.44-13.75-.89-28-1.57-42-.27-5.7-3.12-16.37-12.1-20.09-12.58-5.2-25.44-9.58-36.36-13.18-10.3-3.4-18.16-8.36-24.72-15.62-5.28-5.84-8.58-13.59-12.07-21.8-1.66-3.89-3.37-7.91-5.37-11.92C825.14,321.78,816.62,315,804,311.78a30.16,30.16,0,0,0-7.5-1Z"/></g></g></svg>