<svg xmlns="http://www.w3.org/2000/svg" viewBox="0 0 793.56 901.29"><defs><style>.cls-1{fill:#015aff;}</style></defs><g id="Layer_2" data-name="Layer 2"><g id="Layer_1-2" data-name="Layer 1"><path class="cls-1" d="M489.35,151.06c38.27,22.66,75.32,44.8,112.72,66.32,2.54,1.47,8.95-.49,11.55-3,20-19.11,44.39-29.83,71.2-30.09,44.91-.44,83.58,22.41,100,66.54,18.35,49.4,1.3,97.38-42.76,126.47-2.16,1.43-4.32,3.57-6.67,3.88-21.23,2.8-21.11,17.42-20.61,34,.87,28.52.44,57.09-.12,85.62-.16,8.18,2.17,12.06,10.18,14.85,39.11,13.67,62.09,42,67.55,82.48,5.32,39.49-6.93,73.51-40.07,98-35.12,25.92-72.44,26.19-111.38,9.34-4.26-1.84-11-2.05-14.95.1q-59.65,32.66-118.52,66.75c-3.46,2-6.5,8.72-6.06,12.86,7.28,69.34-51.58,126.13-121.76,114.63-52.55-8.61-91.59-58.62-85.44-114.94.35-3.13-2.58-8.13-5.44-9.87q-59.3-35.93-119.18-70.87c-3.28-1.91-9.32-1.77-12.88-.07C115.61,723.69,76.37,722,40,693.65c-50.89-39.71-51.44-120.3.1-161.4a103.07,103.07,0,0,1,25.54-15c7.29-2.92,10-6.48,10-14.11-.17-35.46.3-70.92-.2-106.37-.06-3.7-4.28-9.29-7.87-10.69C26.36,369.86,3.38,339.43.34,296c-3.13-44.5,15.56-79.88,55.58-100.24,39.83-20.26,82.88-14.53,118,16.1,5.58,4.86,9.41,7,16.63,2.85q51-29.53,102.66-58c7.15-3.94,8.51-7.7,5.58-15.35-20.17-52.74,5.32-105.15,43.58-127.2,59.69-34.38,135.91-3.41,153,60.9C502.35,101.21,498.62,125.4,489.35,151.06Zm-297,524.53a49,49,0,0,0,5.78,4.5c32.92,19.83,66.06,39.31,98.75,59.51,8.18,5.06,12.27,3.56,17.69-3.84C354.88,680.84,439,680,480,734.34c6,8,10.34,8,17.94,3.65q50.08-28.5,100.56-56.33c6.1-3.39,7.71-6.34,3.55-13.08-16.5-26.76-20.29-55.75-11.14-85.73,11-36.14,34.88-60.32,72-69.15,13.22-3.15,18.34-7.84,17.74-22.16-1.2-28.91-.48-57.93.21-86.88.21-9.19-3.27-12.45-11.75-14.89-13.09-3.78-27-7.45-38.09-14.92-39.54-26.71-54-65.64-43-112.74,2.06-8.88.18-13.26-7.46-17.69q-49.87-28.92-99.14-58.88c-8.21-5-14.09-5.59-22.75.51-42.64,30-85,29.53-126.94-.74-6.19-4.46-10.42-5-17.15-1.1q-51.06,29.44-102.8,57.65c-8.6,4.68-11.38,8.92-8.54,19.15,16.55,59.7-21.75,120.05-81,129-8.64,1.3-12.28,5.08-12.15,14.48q.65,46-.47,92c-.26,10,3.17,12.86,12.75,14.55,61.26,10.8,96.93,63.87,83.82,124.84C203.25,649.16,197.27,661.72,192.38,675.59Z"/><path class="cls-1" d="M563.75,344l18,32.07c-16.72,9.67-32.9,19.17-49.22,28.41-35.32,20-70.58,40.09-106.2,59.53-7.6,4.14-10.12,8.85-10.07,17.26.34,55.32.17,110.65.17,166v16.52h-37.3V648.88c0-55.76-.2-111.52.18-167.28.06-9.3-2.6-14.54-11.14-19.24C319.4,435.51,271,407.89,222.56,380.5c-3.67-2.08-7.22-4.37-11.51-7,6.21-10.79,12-20.78,18.32-31.79,32.71,18.43,64.58,36.41,96.48,54.35,20.32,11.42,41.17,22,60.82,34.47,10.06,6.38,17.26,3.82,26-1.18q71.44-40.72,143.18-81C558.08,347.15,560.3,345.91,563.75,344Z"/></g></g></svg>