<svg xmlns="http://www.w3.org/2000/svg" xmlns:xlink="http://www.w3.org/1999/xlink" viewBox="0 0 1080 1079.1"><defs><style>.cls-1{fill:url(#radial-gradient);}</style><radialGradient id="radial-gradient" cx="515.48" cy="507.16" r="599.25" gradientTransform="translate(75.68 82.73) scale(0.9)" gradientUnits="userSpaceOnUse"><stop offset="0" stop-color="#fff"/><stop offset="0.05" stop-color="#fffef5"/><stop offset="0.14" stop-color="#fffadb"/><stop offset="0.25" stop-color="#fff4b0"/><stop offset="0.38" stop-color="#ffec75"/><stop offset="0.5" stop-color="#ffe437"/><stop offset="0.54" stop-color="#fedd36"/><stop offset="0.85" stop-color="#faa933"/><stop offset="1" stop-color="#f89531"/></radialGradient></defs><g id="Layer_2" data-name="Layer 2"><g id="Layer_1-2" data-name="Layer 1"><ellipse class="cls-1" cx="540" cy="539.55" rx="540" ry="539.55"/><path d="M568.67,1079.1h-54a19.39,19.39,0,0,0-3.32-.75,527,527,0,0,1-124.7-21.42C259.75,1018.58,159.49,944.18,87,833.27c-51-78-78.71-164.13-85-257.11-.49-7.11-1.1-14.2-1.65-21.3V522.44A18,18,0,0,0,1,519.53c1.33-16.89,1.92-33.86,4-50.65,8-63.35,26.55-123.53,56.37-180.06q80.34-152.31,233.79-230.7c64-32.72,132.19-51.33,204-56.5C504.94,1.21,510.68.55,516.42,0h45.94a14.92,14.92,0,0,0,2.93.72,521.13,521.13,0,0,1,81.63,10C757.33,33.13,852,84.71,929.56,166.3c93.87,98.79,143.08,217.19,149.56,353.18A508.76,508.76,0,0,1,1059.84,685Q1010.76,855.9,870.56,965.42q-126,98.58-286,112C579.27,1077.9,574,1078.55,568.67,1079.1ZM548.36,534.73c100.8-3.35,192.34-33.18,275.75-88.13Q927.81,378.26,990,270C770.44,278,616.5,411.1,548.36,534.73ZM548,1063.32c83.19-149.18,86.92-353.82-8-514.08Q478.14,663,477.11,791.89C476.18,888.45,498.33,979.19,548,1063.32ZM532,13.87Q451,166.72,473.52,337c8.88,68.11,30.36,132.13,66.31,191.24,33.32-62,54.11-127.77,60.71-197.61C611.15,218.32,585.84,113.47,532,13.87ZM997.5,794.46c-2-3.44-3.19-5.65-4.52-7.78C964.1,740.42,927.8,700.73,886,666Q785.87,582.69,658.46,555.72c-29.57-6.28-59.53-9.15-89.57-11.62L547,542.28C599,627.63,670.12,691.21,757.59,736.87,832.25,775.84,912.14,793.78,997.5,794.46ZM90.83,807.84c80.62-2,156.42-22,227.62-58.79,91.11-47.15,161.05-116.77,214-204.66-94.56,4-182.39,29.36-263,78.55C194,669,136,732.16,90.83,807.84Zm897-549.37C940.92,179.64,875.7,120.17,796.46,75.69S631.46,10.63,540.8,9.18c45.11,75.17,115.78,147.71,221.92,199.15Q869.09,259.87,987.83,258.47ZM558.44,1068.71a18.78,18.78,0,0,0,3.06.28c18-1.57,36.21-2.37,54.12-4.94a534.16,534.16,0,0,0,103.09-25.51c104.72-37.13,188.19-102.25,252.91-192,9.72-13.47,18.93-27.32,28.52-41.19C795,809.43,628.27,937.72,558.44,1068.71Zm-21.06-.48c-58-93.58-138-161.57-238.26-205.82C233,833.23,163.36,820.42,91,819.28c5.77,16.63,53.21,76.3,82.27,103.51,63.94,59.85,137.66,102.77,222,126.81C441.49,1062.79,488.7,1069.8,537.38,1068.23ZM999.23,275.82c-51.7,94.61-69.75,195.37-60,301.49,7,75.18,28.74,145.79,68,211.18C1095.39,628.62,1088.25,425.35,999.23,275.82Zm-919,527.73c31.14-58.19,71.16-159.7,62-284.14-6-81.77-29.92-158.32-69.37-230.62Q-9,443.05,15.06,615.19C24.3,681.93,46.49,744.26,80.22,803.55ZM523.64,9.68c-114.49,6-218.14,40.4-308.81,110.6-54.32,42.05-97.63,93.84-133.24,152.85,21.83,3.33,104.73-11.24,149.27-25.79,81.71-26.68,152.21-71.16,212.1-132.76C473.81,82.84,499.82,47.49,523.64,9.68ZM82.93,284.85q92.48,148.29,254.36,213.57c61.65,24.85,126.15,35.42,192.69,35C484.32,463.58,428,404.9,356.7,361.3,272.78,310,180.65,287.78,82.93,284.85Z"/></g></g></svg>