<?xml version="1.0" encoding="utf-8"?>
<!-- Generator: Adobe Illustrator 26.3.1, SVG Export Plug-In . SVG Version: 6.00 Build 0)  -->
<svg version="1.1" id="Layer_1" xmlns="http://www.w3.org/2000/svg" xmlns:xlink="http://www.w3.org/1999/xlink" x="0px" y="0px"
	 viewBox="0 0 500 500" style="enable-background:new 0 0 500 500;" xml:space="preserve">
<style type="text/css">
	.st0{fill:#B543FC;}
	.st1{fill:#FFFFFF;}
</style>
<g>
	<circle class="st0" cx="250" cy="250" r="200"/>
	<g>
		<g>
			<g>
				<path class="st1" d="M198.6,287.7l35.4-6.9c2.3,7.9,3.5,29.4,33.5,31.3c22.5,1.4,28.4-14.5,28.4-22.5
					c0-28.1-42.6-18.7-74.3-52.5c-7-7.5-10.2-21-10.2-32.1c0-14.4,5.1-26.1,15.2-35.1c10.2-9,23.5-13.4,40-13.4
					c33.9,0,51.5,24.8,55,34.3l-26.2,17.1c-3.7-5.6-13.4-18.4-27.2-20.1c-11.4-1.4-20.1,4.2-21.5,12.4c-4,22.5,30.2,31.3,40.9,36.4
					c12.6,6,27,14,33.3,22.2c6.3,8.1,10.2,17.3,10.2,28.9c0,16.8-5.5,30.1-16.4,40c-11,9.9-31.6,15.5-50.3,14.8
					C207.9,340.4,201.7,300.6,198.6,287.7z"/>
			</g>
			<rect x="143.9" y="225.9" class="st1" width="32" height="118"/>
			<rect x="143.9" y="184.4" class="st1" width="32" height="32"/>
			<path class="st1" d="M286.3,176.3h-32v-54.2h32V176.3z M286.3,100.1h-32v15.9h32V100.1z"/>
			<path class="st1" d="M286.3,376.1h-32V322h32V376.1z M286.3,382.2h-32v15.9h32V382.2z"/>
		</g>
	</g>
</g>
</svg>
