<svg xmlns="http://www.w3.org/2000/svg" viewBox="0 0 898 678.26"><defs><style>.cls-1{fill:#ff7006;}</style></defs><g id="Layer_2" data-name="Layer 2"><g id="Layer_1-2" data-name="Layer 1"><path class="cls-1" d="M315.78,678.26c-1.8-.93-3.54-2-5.41-2.77-13.72-5.36-21.23-17.76-18.8-31.17,2.36-13,13.11-22,27.6-22.14,52.26-.4,104.53-.49,156.8-.75s104.52-.58,156.78-.91c15.3-.09,22.47-7.13,22.49-22.22,0-27.13-.36-54.25,0-81.37.12-8.4-2.8-10.75-10.9-10.63-28.22.41-56.45.25-84.67.19-21.19,0-36.08-15.94-36.24-38.47-.17-23.23,14.63-39.48,36.2-39.57,28.23-.12,56.46-.28,84.68,0,7.54.07,10.59-2.27,10.39-10.16-.73-28.5-.8-57-1.43-85.51C653,319.7,645,312.67,630.51,312.7c-35.89.08-71.77.52-107.66.74q-107.14.65-214.28,1.18c-48.08.19-96.19-.85-144.25.25C95,316.46,22.05,267,7.32,183.06c-11-62.54,22-131.23,74.38-159.19-4.35,4.8-11.13,11.47-17,18.89C32,84.57,29.12,131.2,47.78,178.55S103.1,254.7,154.28,259c37.67,3.16,75.82.75,113.75.62q154.2-.56,308.38-1.23c24-.08,48.18-1.35,71.89,1.34,33.72,3.83,59.8,34.6,60.14,68.49q1.41,138.21,1.87,276.43c.11,37.81-32.8,70.61-70.79,70.88-76,.53-151.92.49-227.88.86-7.56,0-15.11,1.22-22.67,1.87Z"/><path class="cls-1" d="M0,365.22c3.4-12.3,5.8-25,10.48-36.79s11.61-22.67,19.7-33.07c-1.77,5.59-3.87,11.1-5.26,16.79-7.52,30.88,2.39,57,29.19,76.47,27.71,20.1,59.75,30.14,92.84,35.09,36.37,5.43,73.21,8,109.91,10.82,18.07,1.4,29.14,10.48,29.27,27,.15,17.08-10.82,28.32-28.72,28.64-60.06,1-118.62-7.08-174.68-29.52-21.15-8.47-40.8-19.52-57-36C13.24,411.9,4.49,397.29,2.31,379.22c-.23-2-1.51-3.77-2.31-5.66Z"/><path class="cls-1" d="M62.7,151.7C49.43,106.11,64.15,50.81,117.77,21.07c24.64-13.67,51.31-19.9,79.06-20C325,.47,453.2.8,581.39,0c22.41-.14,36.08,20.05,28.44,37.25C604.58,49.07,595.17,54,582.35,54q-73.15,0-146.3.45C354.9,54.8,273.73,54.3,192.61,56c-46.21,1-86.85,17.35-113.56,57.41C70.84,125.76,67.13,141,62.7,151.7Z"/><path class="cls-1" d="M400.26,227.13q-107.62,0-215.25,0c-18.54,0-29.24-9.53-29.44-26s11.36-27,30.07-27q215.24,0,430.48,0c22,0,34.4,16.79,27.36,36.76-4,11.22-11.46,16.28-24.85,16.29Q509.45,227.19,400.26,227.13Z"/><path class="cls-1" d="M352.34,143.93c-56.44,0-112.89-.75-169.31.39-21.39.43-33.1-21.69-24.23-39.46,3.86-7.72,9.65-12.61,18.54-13.2,2.43-.16,4.87-.26,7.3-.26q169.32,0,338.64,0c21.76,0,33.84,17.48,26.09,37.22-4.2,10.68-11.2,15.23-24.58,15.25Q438.57,144,352.34,143.93Z"/><path class="cls-1" d="M29.51,477.27c-2,13.78-5.75,27.4-5.59,41,.29,25,14.47,42.82,34.71,56.08,28.91,18.95,61.69,27.06,95.3,31.22,27.91,3.46,56.12,4.53,84.22,6.33,16,1,27.41,14.08,26.68,31.23-.71,16.49-11,25.79-27.85,25.35-35.79-.93-71.73.71-107-7.44-32.55-7.52-63.69-18.26-89.4-40.39C7.09,591.83-2.31,555.88,12.69,514.44,17.37,501.49,24,489.25,29.51,477.27Z"/><path class="cls-1" d="M735.73,31.44a26.1,26.1,0,0,1-26.4,26.28c-14.45-.12-26.65-12.18-26.8-26.47C682.38,16.32,694.6,4.54,710,4.72,725,4.9,735.85,16.17,735.73,31.44Z"/><path class="cls-1" d="M834.32,4.72c15-.07,26.51,11.11,26.66,26a26.55,26.55,0,1,1-53.09.29C807.93,16.13,819.33,4.79,834.32,4.72Z"/><path class="cls-1" d="M863.3,201.34c-.09,15.26-10.94,25.89-26.39,25.84-14.79,0-26.81-11.73-26.81-26.07,0-14,12.48-26.69,26.55-27C851.52,173.78,863.39,185.91,863.3,201.34Z"/><path class="cls-1" d="M723.18,227.18c-15.25-.06-26.24-11-26.23-26.16s11.26-26.61,26-26.92c14.51-.3,27.26,12.55,27.06,27.28S738.14,227.24,723.18,227.18Z"/><path class="cls-1" d="M749.65,143.94c-15.38-.17-25.83-10.87-25.77-26.36s10.83-26.06,26.19-26c14.62,0,26.88,11.76,27,25.93C777.28,132.18,764.9,144.12,749.65,143.94Z"/><path class="cls-1" d="M603.88,143.94c-15-.2-26.16-11.46-26-26.41s11.49-26,26.54-26c15.5,0,26.84,11.52,26.54,27C630.63,133.32,619.11,144.14,603.88,143.94Z"/><path class="cls-1" d="M870.66,143.92c-15.47-.2-25.9-11-25.69-26.68.2-15.27,11.41-26,26.8-25.71,14.89.32,26.74,12.42,26.21,26.78C897.44,133.27,885.86,144.13,870.66,143.92Z"/></g></g></svg>