<svg xmlns="http://www.w3.org/2000/svg" viewBox="0 0 997 994.41"><defs><style>.cls-1{fill:#f067a6;}.cls-2{fill:#f8bcd6;}.cls-3{fill:#ee3696;}</style></defs><g id="Layer_2" data-name="Layer 2"><g id="Layer_1-2" data-name="Layer 1"><path class="cls-1" d="M140.59,648.56v114l139.53-197Z"/><path class="cls-1" d="M140.59,306.67,280.12,538.85,140.59,621.93,0,538.85"/><path class="cls-2" d="M140.59,306.67V475L0,538.85m0,26.63,140.59,83.08v114"/><path class="cls-3" d="M140.59,475v147l139.53-83.08"/><path class="cls-1" d="M0,538.85,140.59,475v147"/><path class="cls-1" d="M331.76,341.89v114l139.52-197Z"/><path class="cls-1" d="M331.76,0,471.28,232.19,331.76,315.26,191.17,232.19"/><path class="cls-2" d="M331.76,0V168.28L191.17,232.19m0,26.62,140.59,83.08v114"/><path class="cls-3" d="M331.76,168.28v147l139.52-83.07"/><path class="cls-1" d="M191.17,232.19l140.59-63.91v147"/><path class="cls-1" d="M667.63,345.87v114l139.53-197Z"/><path class="cls-1" d="M667.63,4,807.16,236.17,667.63,319.25,527,236.17"/><path class="cls-2" d="M667.63,4V172.27L527,236.17m0,26.63,140.59,83.07v114"/><path class="cls-3" d="M667.63,172.27v147l139.53-83.08"/><path class="cls-1" d="M527,236.17l140.59-63.9v147"/><path class="cls-1" d="M857.47,644.57v114L997,561.5Z"/><path class="cls-1" d="M857.47,302.68,997,534.87,857.47,618,716.88,534.87"/><path class="cls-2" d="M857.47,302.68V471l-140.59,63.9m0,26.63,140.59,83.07v114"/><path class="cls-3" d="M857.47,471V618L997,534.87"/><path class="cls-1" d="M716.88,534.87,857.47,471V618"/><polygon class="cls-2" points="329.24 592.16 158.35 887.26 331.89 808.55 329.24 592.16"/><polygon class="cls-3" points="500.47 888.92 499.93 889.26 500.49 889.53 500.49 888.93 500.47 888.92"/><polygon class="cls-3" points="500.49 889.53 501.04 889.27 500.49 888.93 500.49 889.53"/><polygon class="cls-1" points="331.89 807.22 160.63 889.53 331.89 994.02 332.51 807.53 331.89 807.22"/><polygon class="cls-1" points="670.42 808.55 840.29 889.5 671.75 596.14 670.33 808.59 670.42 808.55"/><polygon class="cls-1" points="671.75 596.14 501.82 491.02 500.49 491.84 500.49 674.47 671.75 596.14"/><polygon class="cls-3" points="331.89 994.02 332.53 994.41 499.93 889.26 332.51 807.53 331.89 994.02"/><polygon class="cls-1" points="501.04 889.27 669.09 994.41 670.33 808.59 501.04 889.27"/><polygon class="cls-3" points="670.42 808.55 670.33 808.59 669.09 994.41 840.31 889.53 840.29 889.5 670.42 808.55"/><polygon class="cls-1" points="500.49 888.93 500.49 674.47 333.22 594.81 332.51 807.53 499.93 889.26 500.47 888.92 500.49 888.93"/><polygon class="cls-2" points="671.75 596.14 500.49 674.47 500.49 888.93 501.04 889.27 670.33 808.59 671.75 596.14"/><polygon class="cls-2" points="160.63 889.53 331.89 807.22 332.51 807.53 333.22 595.47 332.98 595.07 160.63 889.53"/><polygon class="cls-3" points="500.49 674.47 500.49 491.84 333.09 594.89 332.98 595.07 333.22 595.47 333.22 594.81 500.49 674.47"/></g></g></svg>