<svg xmlns="http://www.w3.org/2000/svg" viewBox="0 0 59.9 59.9"><defs><style>.cls-1{fill:#ed1c24;fill-rule:evenodd;}</style></defs><g id="Layer_2" data-name="Layer 2"><g id="Layer_1-2" data-name="Layer 1"><path class="cls-1" d="M20,29.16V21h6.62c2.41,0,4.76,1.27,4.76,4.07S29,29.16,26.62,29.16ZM30,54.29A24.27,24.27,0,0,1,12.68,47.1H20V36.71h4.17L31.08,47.1h11L34,35.35c4-1.67,7.07-4.94,7.07-10.25,0-9.09-6.7-12.31-14.47-12.31H12.68A24.34,24.34,0,1,1,30,54.29ZM5.61,30A24.22,24.22,0,0,1,10.5,15.32V44.58A24.22,24.22,0,0,1,5.61,30ZM30,0a30,30,0,1,0,30,30A30,30,0,0,0,30,0Z"/></g></g></svg>