<svg xmlns="http://www.w3.org/2000/svg" viewBox="0 0 1080 1076.6"><defs><style>.cls-1{fill:#ed1c24;}</style></defs><g id="Layer_2" data-name="Layer 2"><g id="Layer_1-2" data-name="Layer 1"><path class="cls-1" d="M0,538.29C.11,238,246.27-4.86,548.9.07c297.1,4.85,536.92,249,531,549.46-5.79,293.64-248.32,531.86-548.8,527C235.2,1071.74.14,831.11,0,538.29ZM598.49,405c-1.36-.53-1.71-.64-2-.8-53.78-26.75-110.75-41.41-170.63-45-21.89-1.32-43.66-.58-65.05,4.71-13.32,3.29-26.24,7.81-36.72,17.13-12.07,10.74-19,25.28-12.18,43.05,4,10.39,12.05,16.34,21.63,20.23,11.23,4.55,22.6,9.16,34.34,12,33.61,8,67.44,15.09,101.2,22.51,29.52,6.48,59.07,12.95,87.58,23.22,27,9.74,52.38,22.36,74,41.83,24,21.58,39.73,47.61,45.24,79.59,2.8,16.26,2.55,32.56,1.19,48.93-1.59,19.21-5.66,37.81-14.59,55-20.55,39.43-51.29,68.29-91.43,87.34-47,22.29-97,30.21-148.34,31.84-35.83,1.14-71.35-2.42-106.71-8-42.16-6.68-83.05-17.81-122.35-34.6-1.08-.46-2.19-.86-3.84-1.51C282,929,465.09,1014,658.32,960.51c202.17-56,346.54-253,317.49-479.43-26.16-203.95-197.55-371.59-417.88-380.6-80.45-3.3-156.41,14.08-227.3,52.47S203.85,245.3,162.91,312.72c4.32-3.91,9.8-8.74,15.12-13.73,21.53-20.19,46.83-34.09,74.23-44.42,47.93-18.07,98-24.53,148.77-25.93,40.16-1.11,80,2.46,119.7,8.74,36.54,5.79,71.86,15.74,105.66,30.84,8.45,3.78,16.73,7.95,25.58,12.17C634,322.25,616.26,363.63,598.49,405ZM199,656.22c.58.28,1.05.45,1.46.7C232,676,266,689.45,301.07,699.88c39.08,11.62,79.29,16.58,120.11,16,15.66-.21,31.25-1.2,46.41-5.48,21.05-5.94,36.35-17.69,39.34-40.9,2.09-16.19-.53-24.3-15.3-32.47-11.95-6.62-24.15-12.89-37.46-16.17C425,613.68,395.61,607,366.34,600c-31.91-7.63-64-14.51-95.61-23.38-29.3-8.23-57.35-20-82.25-38.13-24.35-17.72-43.13-39.75-53.37-68.49-7.75-21.77-9.32-44.29-8.54-67.11.16-4.68.5-9.34.76-14Q88.82,492.83,105,602.38c7.62,52.3,24.43,101.53,50.72,148.76Z"/></g></g></svg>