<svg xmlns="http://www.w3.org/2000/svg" xmlns:xlink="http://www.w3.org/1999/xlink" viewBox="0 0 1037 1037"><defs><style>.cls-1{fill:#0b0e1c;}.cls-2{fill:url(#linear-gradient);}.cls-3{fill:url(#linear-gradient-2);}.cls-4{fill:url(#linear-gradient-3);}</style><linearGradient id="linear-gradient" x1="154.3" y1="852.52" x2="774.45" y2="182.86" gradientUnits="userSpaceOnUse"><stop offset="0" stop-color="#64ebba"/><stop offset="1" stop-color="#c578f3"/></linearGradient><linearGradient id="linear-gradient-2" x1="51.46" y1="757.28" x2="671.61" y2="87.63" xlink:href="#linear-gradient"/><linearGradient id="linear-gradient-3" x1="373.5" y1="1055.52" x2="993.65" y2="385.86" xlink:href="#linear-gradient"/></defs><g id="Layer_2" data-name="Layer 2"><g id="Layer_1-2" data-name="Layer 1"><circle class="cls-1" cx="518.5" cy="518.5" r="518.5"/><path class="cls-2" d="M356.88,815.24c6.26-16.53,12.23-32.31,18.21-48.09q-2.05-1.65-4.1-3.31c-30.67,11.21-62.22,20.58-91.47,34.7-9.26,4.47-13.77,21.16-18,33.11-6.86,19.3-6,19.6-29.66,25.68,8.76-24.63,15.62-47.73,25.5-69.46,3.05-6.7,13.81-11.08,21.94-14.07q69.44-25.6,139.4-49.74c10.19-3.5,13.93-8.92,17.26-19.28,9.79-30.49,4.39-56.74-14.95-81.52-6.8-8.71-11.83-18.89-17-28.73-17.85-33.75-9-63.43,24-81.55,4.61-2.53,9.12-5.24,15.55-9-10.24-13.8-18.77-28-29.86-39.7-30.2-31.95-61.58-62.81-92.29-94.29-6.84-7-14.15-7.84-20.89-1.58-13.87,12.87-29.66,24.77-40,40.2-33.51,50.24-46.47,107.56-51.8,166.9-.12,1.43.74,2.94,1.53,5.8l142.53-39.24c-3.77,34.7-9.27,66.4-25.09,94-6,10.42-22.51,16.74-35.52,20.64-14.55,4.35-21.31,11.92-25.76,26-17.61,55.62-37,110.69-54.45,166.37-5,15.85-13.13,24.42-30.72,25.25.84-4,1.32-8,2.54-11.76,22.09-68.68,44.48-137.25,66.17-206,2.94-9.34,7.18-14.88,16.81-16a23.53,23.53,0,0,0,3.12-.6c40.66-10.33,47.87-18.76,53-64-14.82,3.86-28.9,7.42-42.92,11.22-18.43,5-36.67,10.8-55.27,15.07-12.06,2.78-18.62,8.31-22,20.93A683.43,683.43,0,0,1,170.43,716c1.32-23,1.19-46.13,4.24-68.87,7.8-58.26,14.79-116.78,26.64-174.26,5.54-26.84,18.91-53.16,33.63-76.66,12.56-20.06,32.11-35.75,50.57-55.53l-24-16.29c45.88-18.52,86.3-26,129.27-14.17,21.74,6,43.9,11.4,66.24,14.1,51.82,6.28,100.27,22,146.52,45.85,7,3.62,17.48,4.78,25,2.57,87.53-25.71,174.8-52.28,262.16-78.59,5.44-1.64,11-2.94,18.21-4.85C911.18,350,895.7,402,850.23,442.18c-9,7.92-13.56,15.78-14.74,27.88-5,51.63-32.9,89.57-76.94,114.12-28.17,15.7-47.17,33.61-53.77,67.38-6,30.69-27.58,54.73-57.7,65.8-75.57,27.79-151.84,53.71-230.29,81.24,2.43-17.39,5.73-28.28,22.68-34,60.86-20.34,121-42.8,181.65-63.84,37.44-13,57-40.1,65.82-80.65l-70.43,22.43c.92-15.92,5.51-25.4,21.44-31.19,36.31-13.18,72.7-26.95,107.1-44.38,38.43-19.47,56.76-55,66.82-100.17L653.66,520.57c-.26-16.65,3.18-26.48,20.23-31.5,37.11-10.92,72.94-26.29,110.19-36.59C817.9,443.13,841.2,422,858,393.72c12.24-20.6,19.93-43.9,29.65-66l-4.06-3.61c-4.27.74-8.65,1.11-12.79,2.3-73.44,21-146.8,42.27-220.35,62.88-10.07,2.82-14.71,7.68-17,17.68-11.45,51.25-23.79,102.3-35.22,153.56-4.31,19.37-14.22,33.62-31.43,43.63-28.45,16.53-56.76,33.35-84.42,51.14-6.25,4-11.58,11.94-13.83,19.15-4.72,15.13-6.26,31.23-10.87,46.4-1.8,5.92-8,10.8-12.9,15.35-2.55,2.37-6.62,3.31-10.17,4.34-20.77,6-36.47,15.67-42.11,39.52C388.46,797.43,374.21,808.78,356.88,815.24ZM528.55,487.78c-32,16.31-62,30.94-91.27,46.74-14.54,7.84-21.48,28-13.81,42.36,11.11,20.78,24.47,40.37,37.18,61,22.36-13.08,42.89-25.07,63.39-37.1,8.68-5.09,17.55-9.89,25.91-15.47,17.4-11.61,23.48-26.71,14.87-41.65C554.07,524.93,541.39,507.35,528.55,487.78Zm-8-20.64c-27.79-33.49-52-65.69-79.56-94.7-15.34-16.13-35.22-28.89-55-39.65-24.91-13.58-52.27-14.43-82.94-5C366.58,376.06,420.62,429.9,466.33,493.3ZM443.87,345.86c60.19,44.84,92,111.53,136.27,172.74,9-39.14,17.38-74.46,25-109.93.73-3.37-2-9.41-5-11.37C552.77,366.27,500.5,349.63,443.87,345.86Z"/><path class="cls-3" d="M128.61,717.37C42.14,566.75,55.77,302,271.89,155,480.7,12.9,746.22,82.73,869.11,256.1c-6.83,2.12-13.5,3.39-19.42,6.22-10.14,4.86-16.07,1.11-22.87-6.84q-83.1-97.15-206.92-129.92C387.27,64,147.47,224.61,116.31,462.71,108.78,520.3,114.42,576.46,127.6,633,133.58,658.72,128.61,687,128.61,717.37Z"/><path class="cls-4" d="M281.84,887.82c22.67-11.8,41.73-13.05,66.07-1.49,241,114.5,530.85-39.33,571.25-302,7.23-47,7-94-1.77-141-1.14-6.13.58-13.54,3.09-19.46,4.71-11.13,11-21.62,16.76-32.73,46.34,128.73,22.39,336.09-143,469.8C630,993.77,413.19,978.35,281.84,887.82Z"/></g></g></svg>