<svg xmlns="http://www.w3.org/2000/svg" xmlns:xlink="http://www.w3.org/1999/xlink" viewBox="0 0 1031.01 1031.01"><defs><style>.cls-1{fill:#1a1a1a;}.cls-2{fill:url(#linear-gradient);}</style><linearGradient id="linear-gradient" x1="491.15" y1="903.89" x2="517.61" y2="268.83" gradientTransform="translate(18.75 -18.09) rotate(2.05)" gradientUnits="userSpaceOnUse"><stop offset="0" stop-color="#8a78ff"/><stop offset="1" stop-color="#15adff"/></linearGradient></defs><g id="Layer_2" data-name="Layer 2"><g id="Layer_1-2" data-name="Layer 1"><circle class="cls-1" cx="515.51" cy="515.51" r="515.5"/><path class="cls-2" d="M924.42,259.45a10.55,10.55,0,0,1-.73,2.16q-4.92,7.88-9.94,15.71c-3.26,5-6.6,10-9.87,15.09s-6.54,10.33-9.84,15.48S887.3,318.31,884,323.53c-3.2,5-6.35,10-9.55,15-3.5,5.46-7.06,10.88-10.54,16.34-3.23,5.08-6.37,10.21-9.61,15.29s-6.8,10.41-10.14,15.64-6.51,10.34-9.79,15.5-6.52,10.14-9.78,15.22c-3.43,5.39-6.84,10.8-10.28,16.18-3.15,4.93-6.33,9.82-9.48,14.74-3.54,5.55-7,11.12-10.59,16.67-2.14,3.36-4.37,6.67-6.51,10-3.5,5.46-6.94,11-10.44,16.42-3.21,5-6.49,9.95-9.69,14.95-3.45,5.39-6.83,10.81-10.29,16.21-2.3,3.6-4.69,7.13-7,10.73-3.34,5.24-6.61,10.51-9.95,15.74-3.2,5-6.46,10-9.66,15-3.5,5.48-6.93,11-10.43,16.45-3.16,4.92-6.38,9.81-9.53,14.73-3.5,5.46-6.93,11-10.45,16.44-3.25,5.08-6.58,10.11-9.86,15.17s-6.5,10.16-9.74,15.25q-6.43,10.1-12.89,20.19c-3.24,5.09-6.5,10.15-9.76,15.23-3.4,5.32-6.82,10.63-10.21,16s-6.64,10.52-10,15.76c-3.24,5.09-6.54,10.14-9.79,15.22-3.4,5.32-6.77,10.65-10.17,16q-4.8,7.51-9.62,15c-3.5,5.47-7,11-10.46,16.44-4.17,6.5-8.38,12.94-12.54,19.44-4.3,6.72-8.55,13.48-12.84,20.22-3.25,5.08-6.56,10.13-9.82,15.22-3.44,5.4-6.82,10.84-10.27,16.24-3.14,4.93-6.35,9.82-9.5,14.74q-5.25,8.22-10.48,16.45c-4.05,6.34-8,12.77-12.27,18.93a6.59,6.59,0,0,1-4.94,2.3c-29.86-.92-59.71-2.19-89.56-3-4.59-.13-6.86-2-8.89-5.57-5.65-9.82-11.47-19.56-17.2-29.35-4.6-7.85-9.14-15.74-13.78-23.59s-9.34-15.63-14-23.48-9.21-15.92-13.86-23.86c-3.73-6.33-7.55-12.6-11.33-18.89s-7.38-12.26-11-18.45c-1.57-2.71-1-4.2,1.56-6,10.25-7.26,20.45-14.6,30.7-21.86,12.62-8.92,25.29-17.77,37.89-26.72,9.42-6.68,18.78-13.45,28.14-20.19,2.67-1.93,3.88-1.9,5.67.87,4.69,7.26,9.23,14.62,13.86,21.92q4.8,7.53,9.67,15c1.62,2.49,2.88.62,3.92-.56,4-4.43,7.88-8.95,11.79-13.46q10.62-12.22,21.25-24.48,14.73-17,29.49-34c10-11.51,20.16-23,30.17-34.49,13.49-15.55,26.88-31.17,40.37-46.72,9.78-11.25,19.68-22.38,29.46-33.63s19.32-22.43,29-33.61q10.43-12,21-24l7.22-8.26c-.25-.33-.49-.68-.74-1-2,1.17-4,2.29-5.91,3.52q-13.66,8.67-27.26,17.39c-7.26,4.68-14.48,9.45-21.75,14.1s-14.67,9.16-22,13.78c-7.14,4.55-14.23,9.17-21.36,13.72-7.45,4.74-14.92,9.42-22.37,14.17-7.2,4.58-14.37,9.26-21.58,13.85-7.44,4.75-14.92,9.43-22.37,14.17-7,4.49-14.08,9-21.13,13.54-7.61,4.84-15.25,9.64-22.86,14.48-7,4.44-13.92,9-20.9,13.4q-11.4,7.26-22.83,14.52-12.59,8-25.14,16.07l-21.6,13.84c-7.68,4.92-15.33,9.88-23,14.76-9.89,6.28-19.83,12.48-29.72,18.75Q323.45,688,312.85,695c-3,2-3.82,1.85-5.66-1.23-6.38-10.68-12.86-21.32-19.23-32s-12.51-21.31-18.83-31.93c-4.56-7.67-9.27-15.24-13.84-22.91-4.7-7.9-9.27-15.87-14-23.77-4.61-7.73-9.4-15.37-14-23.12-5.43-9.09-10.71-18.27-16.13-27.36-5.51-9.27-11.16-18.45-16.66-27.71-4.71-7.89-9.25-15.89-14-23.79-4.56-7.66-9.3-15.22-13.87-22.87-4.66-7.81-9.17-15.7-13.82-23.53-3.69-6.24-7.5-12.4-11.21-18.61-3.9-6.54-7.74-13.12-11.63-19.66-2.81-4.71-5.59-9.44-8.53-14.07-1.28-2-1.09-3.55.14-5.61,2.53-4.2,4.65-8.65,6.93-13,2.6-4.9,5.21-9.8,7.75-14.73,2.38-4.61,4.64-9.3,7-13.9,2.25-4.38,4.55-8.73,6.85-13.07,2.38-4.52,4.8-9,7.18-13.5a61.45,61.45,0,0,1,3.42-6.36,4.94,4.94,0,0,1,3.22-1.78c4.9-.58,9.83-1,14.77-1.26,14.42-.84,28.87-1.53,43.3-2.38,13.31-.79,26.62-1.76,39.93-2.59q26.11-1.61,52.23-3.07c14.72-.81,29.45-1.37,44.15-2.22,16.12-.93,32.2-2.12,48.3-3.13q25.71-1.6,51.39-3.09c16.4-.94,32.78-1.74,49.17-2.64q27-1.49,53.91-3c19.37-1.13,38.72-2.33,58.09-3.46,16.85-1,33.7-1.85,50.55-2.9,13.87-.86,27.72-1.91,41.59-2.83q16-1.05,32.11-2c10.8-.66,21.59-1.31,32.4-1.88a23.27,23.27,0,0,1,5.27.38c.64.11,1.15,1,1.72,1.53a6.92,6.92,0,0,1-1.53,1.4q-11.13,5-22.29,9.85c-6.35,2.78-12.77,5.4-19.09,8.24s-12.7,6-19.1,8.91c-4.45,2-9,3.79-13.48,5.79-4.64,2.09-9.2,4.35-13.82,6.46-4.21,1.91-8.46,3.75-12.68,5.64-4.89,2.19-9.77,4.41-14.66,6.62l-12.66,5.69c-5.06,2.29-10.1,4.61-15.18,6.88-4.39,2-8.83,3.87-13.23,5.83-4.72,2.12-9.43,4.31-14.16,6.42s-9.36,4.09-14,6.16c-4.32,1.91-8.62,3.87-12.92,5.8-4.9,2.21-9.81,4.43-14.72,6.62q-6.47,2.93-12.93,5.81c-5,2.23-10,4.42-15,6.68-4.56,2.08-9,4.28-13.62,6.33s-9.17,4-13.73,6-9.24,4.29-13.86,6.41q-6.32,2.9-12.63,5.74c-5.06,2.29-10,5-15.21,6.75a77.6,77.6,0,0,1-14.19,2.87c-9.77,1.34-19.59,2.42-29.4,3.58-5.56.67-11.1,1.31-16.66,1.95q-12.36,1.43-24.72,2.82c-7.51.84-15,1.64-22.51,2.51-10.92,1.27-21.84,2.55-32.75,3.91-8.33,1-16.63,2.25-24.94,3.3-2.77.36-5.58.42-8.37.59-2.45.14-3,1.12-1.83,3.2,6.64,11.82,13.23,23.65,19.91,35.44,5.44,9.62,11,19.17,16.43,28.78,3.77,6.71,7.42,13.5,11.11,20.26,1.09,2,2.6,2.06,4.49,1.19,6.9-3.15,13.84-6.22,20.73-9.38,6.41-2.93,12.76-6,19.16-8.88,4.4-2,8.85-3.82,13.24-5.77,4.74-2.12,9.43-4.34,14.15-6.48,4.31-1.95,8.64-3.85,12.95-5.78,4.89-2.21,9.78-4.45,14.68-6.64,4.48-2,9-4,13.49-6,4.66-2.07,9.3-4.2,13.95-6.28s9.33-4.17,14-6.24,9.14-4.11,13.72-6.14c4.81-2.15,9.67-4.25,14.48-6.41,4.57-2.05,9.1-4.18,13.64-6.25s8.77-4,13.17-5.93c4.66-2.06,9.33-4.08,14-6.15s9.44-4.24,14.15-6.4,9.55-4.45,14.36-6.63c4.3-1.95,8.65-3.78,13-5.7,4.82-2.15,9.61-4.37,14.41-6.54,4.49-2,9-4,13.47-6,4.73-2.12,9.46-4.28,14.19-6.4,4.57-2.05,9.16-4.07,13.73-6.13,4.74-2.12,9.45-4.27,14.19-6.39s9.34-4.08,14-6.15c4.48-2,8.94-4.05,13.41-6.05,4.72-2.12,9.47-4.2,14.19-6.34s9.23-4.25,13.87-6.37c4.36-2,8.76-3.91,13.14-5.88,4.89-2.2,9.76-4.46,14.65-6.65,4.3-1.94,8.64-3.79,12.94-5.72,4.89-2.19,9.76-4.46,14.66-6.65,4.47-2,9-4,13.45-6,4.74-2.12,9.45-4.3,14.19-6.42s9.32-4.1,14-6.17c4.49-2,8.95-4,13.44-6q7.22-3.23,14.47-6.43c2.28-1,4.58-2,6.86-3,7.16-3.21,14.35-6.38,21.49-9.67,4.63-2.11,9.14-4.46,13.78-6.55,4.45-2,9-3.76,13.5-5.76,4.63-2.08,9.19-4.31,13.8-6.45a57.79,57.79,0,0,1,6.1-2.67C922.43,258.68,923.48,259.25,924.42,259.45Z"/></g></g></svg>