<?xml version="1.0" encoding="utf-8"?>
<!-- Generator: Adobe Illustrator 26.3.1, SVG Export Plug-In . SVG Version: 6.00 Build 0)  -->
<svg version="1.1" id="Layer_1" xmlns="http://www.w3.org/2000/svg" xmlns:xlink="http://www.w3.org/1999/xlink" x="0px" y="0px"
	 viewBox="0 0 500 500" style="enable-background:new 0 0 500 500;" xml:space="preserve">
<style type="text/css">
	.st0{fill:#5BBC5A;}
	.st1{fill:#FFFFFF;}
</style>
<circle class="st0" cx="250" cy="250" r="200"/>
<g>
	<g>
		<g>
			<path class="st1" d="M177.96,291.89l38.46-7.5c2.46,8.6,3.84,31.97,36.46,34.01c24.46,1.53,30.84-15.78,30.84-24.46
				c0-30.58-46.38-20.39-80.78-57.08c-7.61-8.12-11.04-22.82-11.04-34.93c0-15.7,5.53-28.43,16.58-38.17
				c11.05-9.74,25.54-14.61,43.47-14.61c36.87,0,55.98,26.98,59.81,37.25l-28.51,18.6c-4-6.05-14.62-20.02-29.61-21.84
				c-12.41-1.5-21.81,4.62-23.39,13.44c-4.37,24.45,32.89,34.02,44.52,39.54c13.66,6.49,29.34,15.2,36.23,24.15
				c6.81,8.84,11.05,18.84,11.05,31.39c0,18.25-5.96,32.75-17.88,43.5c-11.92,10.75-34.4,16.8-54.67,16.12
				C188.15,349.23,181.33,305.93,177.96,291.89z"/>
		</g>
		<path class="st1" d="M273.4,170.8h-34.8v-58.92h34.8V170.8z M273.4,87.98h-34.8v17.29h34.8V87.98z"/>
		<path class="st1" d="M273.4,388.12h-34.8V329.2h34.8V388.12z M273.4,394.73h-34.8v17.29h34.8V394.73z"/>
	</g>
</g>
</svg>
