<?xml version="1.0" encoding="utf-8"?>
<!-- Generator: Adobe Illustrator 26.3.1, SVG Export Plug-In . SVG Version: 6.00 Build 0)  -->
<svg version="1.1" id="Layer_1" xmlns="http://www.w3.org/2000/svg" xmlns:xlink="http://www.w3.org/1999/xlink" x="0px" y="0px"
	 viewBox="0 0 500 500" style="enable-background:new 0 0 500 500;" xml:space="preserve">
<style type="text/css">
	.st0{fill:#001121;}
	.st1{fill:url(#Path_2_00000139266316837173233430000014665939246340995739_);}
	.st2{fill-rule:evenodd;clip-rule:evenodd;fill:url(#Path_3_00000067953178544241729860000003176958029144170401_);}
</style>
<g id="Group_2" transform="translate(175.812 390.205)">
	<circle id="Ellipse_3" class="st0" cx="74.2" cy="-140.2" r="190.9"/>
	<g id="Group_1" transform="translate(0 0)">
		
			<linearGradient id="Path_2_00000047060714564341436810000012008736338588568248_" gradientUnits="userSpaceOnUse" x1="-1157.8027" y1="352.6122" x2="-1163.8387" y2="358.8237" gradientTransform="matrix(84.36 0 0 -84.36 97932.3281 29797.4668)">
			<stop  offset="0" style="stop-color:#FFC609"/>
			<stop  offset="1" style="stop-color:#F4831F"/>
		</linearGradient>
		<path id="Path_2" style="fill:url(#Path_2_00000047060714564341436810000012008736338588568248_);" d="M74.19,59.8
			c-110.46,0-200-89.54-200-200s89.54-200,200-200c110.46,0,200,89.54,200,200c0,0,0,0.01,0,0.01
			C274.06-29.8,184.6,59.67,74.19,59.8z M74.19-325.22c-102.19,0-185.03,82.84-185.03,185.03c0,102.19,82.84,185.03,185.03,185.03
			S259.22-38.01,259.22-140.2C259.11-242.34,176.34-325.12,74.19-325.22L74.19-325.22z"/>
	</g>
	
		<linearGradient id="Path_3_00000105417486477622078560000006208914062779396018_" gradientUnits="userSpaceOnUse" x1="-1151.4397" y1="351.1362" x2="-1155.2235" y2="347.3334" gradientTransform="matrix(56.249 0 0 -46.37 64921.2695 16104.1523)">
		<stop  offset="0.235" style="stop-color:#FFC609"/>
		<stop  offset="0.875" style="stop-color:#F4831F"/>
	</linearGradient>
	
		<path id="Path_3" style="fill-rule:evenodd;clip-rule:evenodd;fill:url(#Path_3_00000105417486477622078560000006208914062779396018_);" d="
		M169.73-78.59H21.61C34.4-66.03,51.27-58.48,69.16-57.3h10.07c0.71-0.05,1.42-0.1,2.13-0.17v0.17h126.19l-49.61-81.79
		c0.18,2.23,0.27,4.48,0.27,6.77c0.01,9.28-1.52,18.5-4.53,27.27L169.73-78.59L169.73-78.59z M7.96-167.95l-19.65,32.4l-47.46,78.24
		h95.52c-10.28-5.2-19.38-12.45-26.75-21.29h-30.95l76.76-126.56c-17.77,4.59-33.25,15.51-43.53,30.71l-2.75,4.54L7.96-167.95
		L7.96-167.95z M142.01-165.35L74.2-277.17l-44.71,73.7c9.77-6.16,20.72-10.23,32.15-11.94l12.56-20.7l73.26,120.79
		c3.88-16.82,1.89-34.46-5.66-49.99L142.01-165.35L142.01-165.35z"/>
</g>
</svg>
